<svg width="28" height="28" viewBox="0 0 28 28" fill="none" xmlns="http://www.w3.org/2000/svg">
<path d="M23.7373 9.86458C23.5891 9.98158 20.9724 11.4818 20.9724 14.8177C20.9724 18.6762 24.302 20.0412 24.4017 20.075C24.3863 20.1582 23.8727 21.9445 22.6461 23.7645C21.5525 25.3661 20.4102 26.9652 18.6726 26.9652C16.935 26.9652 16.4878 25.9382 14.4818 25.9382C12.527 25.9382 11.8319 26.999 10.2425 26.999C8.6531 26.999 7.54408 25.5169 6.26896 23.6969C4.79198 21.5597 3.59863 18.2394 3.59863 15.0881C3.59863 10.0336 6.82858 7.35292 10.0074 7.35292C11.6965 7.35292 13.1045 8.48135 14.165 8.48135C15.1743 8.48135 16.7484 7.28532 18.67 7.28532C19.3983 7.28532 22.015 7.35292 23.7373 9.86458ZM17.7578 5.14547C18.5525 4.18605 19.1147 2.85482 19.1147 1.52359C19.1147 1.33898 19.0993 1.15178 19.0661 1.00098C17.7731 1.05038 16.2348 1.8772 15.3072 2.97182C14.5789 3.81424 13.8992 5.14547 13.8992 6.4949C13.8992 6.69771 13.9324 6.90051 13.9478 6.96551C14.0295 6.98111 14.1624 6.99931 14.2953 6.99931C15.4554 6.99931 16.9145 6.2089 17.7578 5.14547Z" fill="black"/>
</svg>
