<svg width="161" height="20" viewBox="0 0 161 20" fill="none" xmlns="http://www.w3.org/2000/svg">
<path d="M38.2881 0C39.5586 3.90112e-05 40.7279 0.174553 41.7959 0.524414C42.8638 0.874233 43.7108 1.27006 44.3369 1.71191V8.39746H43.9502C42.9742 7.45835 42.0441 6.82268 41.1602 6.49121C40.2947 6.14141 39.3 5.9668 38.1768 5.9668C36.7036 5.96686 35.5067 6.32577 34.5859 7.04395C33.6652 7.74376 33.2051 8.72931 33.2051 10C33.2052 11.2338 33.6563 12.2284 34.5586 12.9834C35.4793 13.7383 36.6854 14.1161 38.1768 14.1162C39.3 14.1162 40.2947 13.9406 41.1602 13.5908C42.0256 13.2409 42.9558 12.5963 43.9502 11.6572H44.3369V18.2871C43.7108 18.729 42.8638 19.1248 41.7959 19.4746C40.7279 19.8245 39.5586 20 38.2881 20C35.0652 20 32.4864 19.0512 30.5527 17.1543C28.6375 15.2574 27.6797 12.863 27.6797 9.97168C27.6798 7.13572 28.6465 4.76888 30.5801 2.87207C32.5138 0.956784 35.0837 0 38.2881 0ZM5.85645 19.668H0V0.331055H5.85645V19.668ZM19.4854 10.0547L21.502 15.6904H21.75C21.4185 14.4566 21.1697 13.4898 21.0039 12.79C20.8382 12.0902 20.6726 11.0859 20.5068 9.77832C20.3411 8.45245 20.2588 7.08004 20.2588 5.66211V0.331055H26.1152V19.668H19.54L14.4297 9.75098L12.5234 4.33691H12.2754C12.6621 5.71796 12.9289 6.74039 13.0762 7.40332C13.2235 8.04786 13.3713 8.99606 13.5186 10.248C13.6843 11.4819 13.7666 12.8363 13.7666 14.3096V19.668H7.91016V0.331055H14.4854L19.4854 10.0547ZM57.2266 0.331055C59.1971 0.331055 60.7081 0.782166 61.7578 1.68457C62.8073 2.56849 63.332 3.69205 63.332 5.05469C63.332 6.62002 62.6785 7.81775 61.3711 8.64648C60.0635 9.45681 58.4881 9.86133 56.6465 9.86133V10.1934C58.175 10.1934 59.336 10.3867 60.1279 10.7734C60.9196 11.1602 61.4999 11.915 61.8682 13.0381C61.8866 13.0933 62.07 13.6922 62.4199 14.834C62.7698 15.9758 63.0921 16.9336 63.3867 17.707C63.6813 18.4804 63.967 19.0238 64.2432 19.3369V19.668H57.8623C57.6414 19.226 57.4291 18.7014 57.2266 18.0938C57.0424 17.4861 56.859 16.8137 56.6748 16.0771C56.4906 15.3405 56.3707 14.8983 56.3154 14.751C55.9839 13.554 55.6062 12.7806 55.1826 12.4307C54.7775 12.0624 54.0774 11.8779 53.083 11.8779H52.0059V19.668H46.1494V0.331055H57.2266ZM79.8408 5.16504H71.1123V8.14844C71.2966 7.79885 71.7569 7.62402 72.4932 7.62402H79.123V12.1816H72.4932C71.7384 12.1816 71.2782 11.9979 71.1123 11.6299V14.834H80.0068V19.668H65.2559V0.331055H79.8408V5.16504ZM89.7021 0.331055C91.7462 0.33108 93.5053 0.588858 94.9785 1.10449C96.4514 1.62008 97.5931 2.33822 98.4033 3.25879C99.232 4.17952 99.8309 5.20192 100.199 6.3252C100.586 7.43018 100.779 8.66453 100.779 10.0273C100.779 11.39 100.595 12.6236 100.227 13.7285C99.8582 14.8335 99.2594 15.8468 98.4307 16.7676C97.6204 17.6883 96.47 18.4072 94.9785 18.9229C93.5053 19.4201 91.7462 19.6679 89.7021 19.668H81.6904V0.331055H89.7021ZM108.19 19.668H102.335V0.331055H108.19V19.668ZM119.223 0.331055C121.285 0.331055 122.962 0.689962 124.251 1.4082C125.558 2.10801 126.212 3.25922 126.212 4.86133C126.212 7.29229 124.251 8.59108 120.328 8.75684V9.06055C125.54 8.78431 128.146 10.3865 128.146 13.8672C128.145 14.8801 127.924 15.7645 127.482 16.5195C127.041 17.2558 126.507 17.8264 125.881 18.2314C125.255 18.6181 124.481 18.9315 123.561 19.1709C122.64 19.3919 121.811 19.5297 121.074 19.585C120.338 19.6402 119.527 19.668 118.643 19.668H110.245V0.331055H119.223ZM135.559 15.3584C135.743 15.0088 136.203 14.834 136.939 14.834H143.983V19.668H129.702V0.331055H135.559V15.3584ZM160.049 5.16504H151.319V8.14844C151.504 7.79877 151.964 7.6241 152.7 7.62402H159.33V12.1816H152.7C151.946 12.1816 151.485 11.998 151.319 11.6299V14.834H160.215V19.668H145.463V0.331055H160.049V5.16504ZM87.5469 14.7783H90.2822C91.7186 14.7783 92.8421 14.3737 93.6523 13.5635C94.4626 12.7532 94.8672 11.5743 94.8672 10.0273C94.8672 8.48039 94.4626 7.30153 93.6523 6.49121C92.8421 5.68094 91.7186 5.27544 90.2822 5.27539H87.5469V14.7783ZM116.102 14.6963H119.029C121.239 14.6963 122.345 14.0419 122.345 12.7344C122.345 11.5006 121.359 10.8838 119.389 10.8838H116.102V14.6963ZM52.0059 8.70117H54.9062C56.7662 8.70117 57.6962 8.01995 57.6963 6.65723C57.6963 5.38649 56.7663 4.75098 54.9062 4.75098H52.0059V8.70117ZM116.102 7.95508H118.201C120.135 7.95505 121.102 7.37504 121.102 6.21484C121.101 5.62579 120.862 5.20215 120.384 4.94434C119.923 4.68652 119.196 4.55763 118.201 4.55762H116.102V7.95508Z" fill="black"/>
</svg>
