<svg width="28" height="28" viewBox="0 0 28 28" fill="none" xmlns="http://www.w3.org/2000/svg">
<g clip-path="url(#clip0_1664_4654)">
<path d="M19.9234 10.2328C17.1354 8.67336 12.6605 6.16934 5.7196 2.28297C5.25164 1.97393 4.71324 1.93343 4.24805 2.09088L16.1567 13.9995L19.9234 10.2328Z" fill="#32BBFF"/>
<path d="M4.24788 2.09082C4.16069 2.12035 4.07585 2.15598 3.9947 2.19901C3.481 2.47688 3.10352 3.01159 3.10352 3.68785V24.311C3.10352 24.9873 3.48095 25.522 3.9947 25.7998C4.07571 25.8428 4.1605 25.8786 4.2476 25.9083L16.1565 13.9994L4.24788 2.09082Z" fill="#32BBFF"/>
<path d="M16.1569 13.999L4.24805 25.9079C4.71338 26.0665 5.25178 26.0291 5.71988 25.7155C12.451 21.9463 16.8755 19.472 19.6958 17.8993C19.7743 17.8552 19.8512 17.8121 19.9273 17.7694L16.1569 13.999Z" fill="#32BBFF"/>
<path d="M3.10352 13.999V24.3106C3.10352 24.9869 3.48095 25.5216 3.9947 25.7994C4.07571 25.8424 4.1605 25.8782 4.2476 25.9079L16.1565 13.999H3.10352Z" fill="#2C9FD9"/>
<path d="M5.71984 2.28256C5.16414 1.91562 4.50882 1.92607 3.99512 2.1987L15.9762 14.1798L19.9236 10.2323C17.1356 8.67295 12.6607 6.16893 5.71984 2.28256Z" fill="#29CC5E"/>
<path d="M15.9762 13.8184L3.99512 25.7994C4.50887 26.072 5.16414 26.0877 5.71984 25.7155C12.451 21.9463 16.8755 19.472 19.6957 17.8993C19.7743 17.8552 19.8512 17.8121 19.9272 17.7694L15.9762 13.8184Z" fill="#D93F21"/>
<path d="M24.8966 13.9989C24.8966 13.4275 24.6082 12.8509 24.0368 12.5311C24.0368 12.5311 22.9681 11.9348 19.6923 10.1025L15.7959 13.9989L19.6961 17.8992C22.9359 16.0801 24.0367 15.4667 24.0367 15.4667C24.6082 15.147 24.8966 14.5703 24.8966 13.9989Z" fill="#FFD500"/>
<path d="M24.0368 15.4669C24.6082 15.1471 24.8966 14.5704 24.8966 13.999H15.7959L19.6961 17.8993C22.936 16.0802 24.0368 15.4669 24.0368 15.4669Z" fill="#FFAA00"/>
</g>
<defs>
<clipPath id="clip0_1664_4654">
<rect width="24" height="24" fill="white" transform="translate(2 2)"/>
</clipPath>
</defs>
</svg>
