<svg width="207" height="207" viewBox="0 0 207 207" fill="none" xmlns="http://www.w3.org/2000/svg">
<g clip-path="url(#clip0_1664_3773)">
<path d="M0 24C0 10.7452 10.7452 0 24 0H183C196.255 0 207 10.7452 207 24V183C207 196.255 196.255 207 183 207H24C10.7452 207 0 196.255 0 183V24Z" fill="white"/>
<path d="M67.5147 15.1816C69.1883 15.1816 70.545 16.5452 70.545 18.2271C70.545 19.9091 69.1883 21.2725 67.5147 21.2725C65.8411 21.2725 64.4844 19.9091 64.4844 18.2271C64.4844 16.5452 65.8411 15.1816 67.5147 15.1816Z" fill="black"/>
<path d="M85.6973 15.1816C87.371 15.1816 88.7276 16.5452 88.7276 18.2271C88.7276 19.9091 87.371 21.2725 85.6973 21.2725C84.0237 21.2725 82.667 19.9091 82.667 18.2271C82.667 16.5452 84.0237 15.1816 85.6973 15.1816Z" fill="black"/>
<path d="M109.939 15.1816C111.613 15.1816 112.97 16.5452 112.97 18.2271C112.97 19.9091 111.613 21.2725 109.939 21.2725C108.266 21.2725 106.909 19.9091 106.909 18.2271C106.909 16.5452 108.266 15.1816 109.939 15.1816Z" fill="black"/>
<path d="M116 15.1816C117.674 15.1816 119.03 16.5452 119.03 18.2271C119.03 19.9091 117.674 21.2725 116 21.2725C114.326 21.2725 112.97 19.9091 112.97 18.2271C112.97 16.5452 114.326 15.1816 116 15.1816Z" fill="black"/>
<path d="M122.061 15.1816C123.734 15.1816 125.091 16.5452 125.091 18.2271C125.091 19.9091 123.734 21.2725 122.061 21.2725C120.387 21.2725 119.03 19.9091 119.03 18.2271C119.03 16.5452 120.387 15.1816 122.061 15.1816Z" fill="black"/>
<path d="M128.121 15.1816C129.795 15.1816 131.151 16.5452 131.151 18.2271C131.151 19.9091 129.795 21.2725 128.121 21.2725C126.448 21.2725 125.091 19.9091 125.091 18.2271C125.091 16.5452 126.448 15.1816 128.121 15.1816Z" fill="black"/>
<path d="M79.6367 21.2725C81.3104 21.2725 82.6671 22.636 82.6671 24.3179C82.6671 25.9999 81.3104 27.3634 79.6367 27.3634C77.9632 27.3634 76.6064 25.9999 76.6064 24.3179C76.6064 22.636 77.9632 21.2725 79.6367 21.2725Z" fill="black"/>
<path d="M103.879 21.2725C105.553 21.2725 106.909 22.636 106.909 24.3179C106.909 25.9999 105.553 27.3634 103.879 27.3634C102.205 27.3634 100.849 25.9999 100.849 24.3179C100.849 22.636 102.205 21.2725 103.879 21.2725Z" fill="black"/>
<path d="M116 21.2725C117.674 21.2725 119.03 22.636 119.03 24.3179C119.03 25.9999 117.674 27.3634 116 27.3634C114.326 27.3634 112.97 25.9999 112.97 24.3179C112.97 22.636 114.326 21.2725 116 21.2725Z" fill="black"/>
<path d="M128.121 21.2725C129.795 21.2725 131.151 22.636 131.151 24.3179C131.151 25.9999 129.795 27.3634 128.121 27.3634C126.448 27.3634 125.091 25.9999 125.091 24.3179C125.091 22.636 126.448 21.2725 128.121 21.2725Z" fill="black"/>
<path d="M79.6367 27.3633C81.3104 27.3633 82.6671 28.7268 82.6671 30.4087C82.6671 32.0908 81.3104 33.4542 79.6367 33.4542C77.9632 33.4542 76.6064 32.0908 76.6064 30.4087C76.6064 28.7268 77.9632 27.3633 79.6367 27.3633Z" fill="black"/>
<path d="M91.7578 27.3633C93.4315 27.3633 94.7881 28.7268 94.7881 30.4087C94.7881 32.0908 93.4315 33.4542 91.7578 33.4542C90.0843 33.4542 88.7275 32.0908 88.7275 30.4087C88.7275 28.7268 90.0843 27.3633 91.7578 27.3633Z" fill="black"/>
<path d="M97.8184 27.3633C99.492 27.3633 100.849 28.7268 100.849 30.4087C100.849 32.0908 99.492 33.4542 97.8184 33.4542C96.1448 33.4542 94.7881 32.0908 94.7881 30.4087C94.7881 28.7268 96.1448 27.3633 97.8184 27.3633Z" fill="black"/>
<path d="M103.879 27.3633C105.553 27.3633 106.909 28.7268 106.909 30.4087C106.909 32.0908 105.553 33.4542 103.879 33.4542C102.205 33.4542 100.849 32.0908 100.849 30.4087C100.849 28.7268 102.205 27.3633 103.879 27.3633Z" fill="black"/>
<path d="M109.939 27.3633C111.613 27.3633 112.97 28.7268 112.97 30.4087C112.97 32.0908 111.613 33.4542 109.939 33.4542C108.266 33.4542 106.909 32.0908 106.909 30.4087C106.909 28.7268 108.266 27.3633 109.939 27.3633Z" fill="black"/>
<path d="M116 27.3633C117.674 27.3633 119.03 28.7268 119.03 30.4087C119.03 32.0908 117.674 33.4542 116 33.4542C114.326 33.4542 112.97 32.0908 112.97 30.4087C112.97 28.7268 114.326 27.3633 116 27.3633Z" fill="black"/>
<path d="M128.121 27.3633C129.795 27.3633 131.151 28.7268 131.151 30.4087C131.151 32.0908 129.795 33.4542 128.121 33.4542C126.448 33.4542 125.091 32.0908 125.091 30.4087C125.091 28.7268 126.448 27.3633 128.121 27.3633Z" fill="black"/>
<path d="M134.182 27.3633C135.855 27.3633 137.212 28.7268 137.212 30.4087C137.212 32.0908 135.855 33.4542 134.182 33.4542C132.508 33.4542 131.151 32.0908 131.151 30.4087C131.151 28.7268 132.508 27.3633 134.182 27.3633Z" fill="black"/>
<path d="M67.5147 33.4541C69.1883 33.4541 70.545 34.8176 70.545 36.4996C70.545 38.1816 69.1883 39.545 67.5147 39.545C65.8411 39.545 64.4844 38.1816 64.4844 36.4996C64.4844 34.8176 65.8411 33.4541 67.5147 33.4541Z" fill="black"/>
<path d="M79.6367 33.4541C81.3104 33.4541 82.6671 34.8176 82.6671 36.4996C82.6671 38.1816 81.3104 39.545 79.6367 39.545C77.9632 39.545 76.6064 38.1816 76.6064 36.4996C76.6064 34.8176 77.9632 33.4541 79.6367 33.4541Z" fill="black"/>
<path d="M91.7578 33.4541C93.4315 33.4541 94.7881 34.8176 94.7881 36.4996C94.7881 38.1816 93.4315 39.545 91.7578 39.545C90.0843 39.545 88.7275 38.1816 88.7275 36.4996C88.7275 34.8176 90.0843 33.4541 91.7578 33.4541Z" fill="black"/>
<path d="M97.8184 33.4541C99.492 33.4541 100.849 34.8176 100.849 36.4996C100.849 38.1816 99.492 39.545 97.8184 39.545C96.1448 39.545 94.7881 38.1816 94.7881 36.4996C94.7881 34.8176 96.1448 33.4541 97.8184 33.4541Z" fill="black"/>
<path d="M116 33.4541C117.674 33.4541 119.03 34.8176 119.03 36.4996C119.03 38.1816 117.674 39.545 116 39.545C114.326 39.545 112.97 38.1816 112.97 36.4996C112.97 34.8176 114.326 33.4541 116 33.4541Z" fill="black"/>
<path d="M128.121 33.4541C129.795 33.4541 131.151 34.8176 131.151 36.4996C131.151 38.1816 129.795 39.545 128.121 39.545C126.448 39.545 125.091 38.1816 125.091 36.4996C125.091 34.8176 126.448 33.4541 128.121 33.4541Z" fill="black"/>
<path d="M73.5762 39.5449C75.2499 39.5449 76.6065 40.9084 76.6065 42.5904C76.6065 44.2724 75.2499 45.6358 73.5762 45.6358C71.9026 45.6358 70.5459 44.2724 70.5459 42.5904C70.5459 40.9084 71.9026 39.5449 73.5762 39.5449Z" fill="black"/>
<path d="M97.8184 39.5449C99.492 39.5449 100.849 40.9084 100.849 42.5904C100.849 44.2724 99.492 45.6358 97.8184 45.6358C96.1448 45.6358 94.7881 44.2724 94.7881 42.5904C94.7881 40.9084 96.1448 39.5449 97.8184 39.5449Z" fill="black"/>
<path d="M103.879 39.5449C105.553 39.5449 106.909 40.9084 106.909 42.5904C106.909 44.2724 105.553 45.6358 103.879 45.6358C102.205 45.6358 100.849 44.2724 100.849 42.5904C100.849 40.9084 102.205 39.5449 103.879 39.5449Z" fill="black"/>
<path d="M109.939 39.5449C111.613 39.5449 112.97 40.9084 112.97 42.5904C112.97 44.2724 111.613 45.6358 109.939 45.6358C108.266 45.6358 106.909 44.2724 106.909 42.5904C106.909 40.9084 108.266 39.5449 109.939 39.5449Z" fill="black"/>
<path d="M128.121 39.5449C129.795 39.5449 131.151 40.9084 131.151 42.5904C131.151 44.2724 129.795 45.6358 128.121 45.6358C126.448 45.6358 125.091 44.2724 125.091 42.5904C125.091 40.9084 126.448 39.5449 128.121 39.5449Z" fill="black"/>
<path d="M134.182 39.5449C135.855 39.5449 137.212 40.9084 137.212 42.5904C137.212 44.2724 135.855 45.6358 134.182 45.6358C132.508 45.6358 131.151 44.2724 131.151 42.5904C131.151 40.9084 132.508 39.5449 134.182 39.5449Z" fill="black"/>
<path d="M140.242 39.5449C141.916 39.5449 143.273 40.9084 143.273 42.5904C143.273 44.2724 141.916 45.6358 140.242 45.6358C138.569 45.6358 137.212 44.2724 137.212 42.5904C137.212 40.9084 138.569 39.5449 140.242 39.5449Z" fill="black"/>
<path d="M79.6367 45.6357C81.3104 45.6357 82.6671 46.9993 82.6671 48.6812C82.6671 50.3632 81.3104 51.7267 79.6367 51.7267C77.9632 51.7267 76.6064 50.3632 76.6064 48.6812C76.6064 46.9993 77.9632 45.6357 79.6367 45.6357Z" fill="black"/>
<path d="M116 45.6357C117.674 45.6357 119.03 46.9993 119.03 48.6812C119.03 50.3632 117.674 51.7267 116 51.7267C114.326 51.7267 112.97 50.3632 112.97 48.6812C112.97 46.9993 114.326 45.6357 116 45.6357Z" fill="black"/>
<path d="M122.061 45.6357C123.734 45.6357 125.091 46.9993 125.091 48.6812C125.091 50.3632 123.734 51.7267 122.061 51.7267C120.387 51.7267 119.03 50.3632 119.03 48.6812C119.03 46.9993 120.387 45.6357 122.061 45.6357Z" fill="black"/>
<path d="M134.182 45.6357C135.855 45.6357 137.212 46.9993 137.212 48.6812C137.212 50.3632 135.855 51.7267 134.182 51.7267C132.508 51.7267 131.151 50.3632 131.151 48.6812C131.151 46.9993 132.508 45.6357 134.182 45.6357Z" fill="black"/>
<path d="M67.5147 51.7275C69.1883 51.7275 70.545 53.091 70.545 54.773C70.545 56.455 69.1883 57.8184 67.5147 57.8184C65.8411 57.8184 64.4844 56.455 64.4844 54.773C64.4844 53.091 65.8411 51.7275 67.5147 51.7275Z" fill="black"/>
<path d="M79.6367 51.7275C81.3104 51.7275 82.6671 53.091 82.6671 54.773C82.6671 56.455 81.3104 57.8184 79.6367 57.8184C77.9632 57.8184 76.6064 56.455 76.6064 54.773C76.6064 53.091 77.9632 51.7275 79.6367 51.7275Z" fill="black"/>
<path d="M91.7578 51.7275C93.4315 51.7275 94.7881 53.091 94.7881 54.773C94.7881 56.455 93.4315 57.8184 91.7578 57.8184C90.0843 57.8184 88.7275 56.455 88.7275 54.773C88.7275 53.091 90.0843 51.7275 91.7578 51.7275Z" fill="black"/>
<path d="M103.879 51.7275C105.553 51.7275 106.909 53.091 106.909 54.773C106.909 56.455 105.553 57.8184 103.879 57.8184C102.205 57.8184 100.849 56.455 100.849 54.773C100.849 53.091 102.205 51.7275 103.879 51.7275Z" fill="black"/>
<path d="M116 51.7275C117.674 51.7275 119.03 53.091 119.03 54.773C119.03 56.455 117.674 57.8184 116 57.8184C114.326 57.8184 112.97 56.455 112.97 54.773C112.97 53.091 114.326 51.7275 116 51.7275Z" fill="black"/>
<path d="M128.121 51.7275C129.795 51.7275 131.151 53.091 131.151 54.773C131.151 56.455 129.795 57.8184 128.121 57.8184C126.448 57.8184 125.091 56.455 125.091 54.773C125.091 53.091 126.448 51.7275 128.121 51.7275Z" fill="black"/>
<path d="M140.242 51.7275C141.916 51.7275 143.273 53.091 143.273 54.773C143.273 56.455 141.916 57.8184 140.242 57.8184C138.569 57.8184 137.212 56.455 137.212 54.773C137.212 53.091 138.569 51.7275 140.242 51.7275Z" fill="black"/>
<path d="M73.5762 57.8184C75.2499 57.8184 76.6065 59.1819 76.6065 60.8638C76.6065 62.5458 75.2499 63.9093 73.5762 63.9093C71.9026 63.9093 70.5459 62.5458 70.5459 60.8638C70.5459 59.1819 71.9026 57.8184 73.5762 57.8184Z" fill="black"/>
<path d="M79.6367 57.8184C81.3104 57.8184 82.6671 59.1819 82.6671 60.8638C82.6671 62.5458 81.3104 63.9093 79.6367 63.9093C77.9632 63.9093 76.6064 62.5458 76.6064 60.8638C76.6064 59.1819 77.9632 57.8184 79.6367 57.8184Z" fill="black"/>
<path d="M91.7578 57.8184C93.4315 57.8184 94.7881 59.1819 94.7881 60.8638C94.7881 62.5458 93.4315 63.9093 91.7578 63.9093C90.0843 63.9093 88.7275 62.5458 88.7275 60.8638C88.7275 59.1819 90.0843 57.8184 91.7578 57.8184Z" fill="black"/>
<path d="M97.8184 57.8184C99.492 57.8184 100.849 59.1819 100.849 60.8638C100.849 62.5458 99.492 63.9093 97.8184 63.9093C96.1448 63.9093 94.7881 62.5458 94.7881 60.8638C94.7881 59.1819 96.1448 57.8184 97.8184 57.8184Z" fill="black"/>
<path d="M109.939 57.8184C111.613 57.8184 112.97 59.1819 112.97 60.8638C112.97 62.5458 111.613 63.9093 109.939 63.9093C108.266 63.9093 106.909 62.5458 106.909 60.8638C106.909 59.1819 108.266 57.8184 109.939 57.8184Z" fill="black"/>
<path d="M116 57.8184C117.674 57.8184 119.03 59.1819 119.03 60.8638C119.03 62.5458 117.674 63.9093 116 63.9093C114.326 63.9093 112.97 62.5458 112.97 60.8638C112.97 59.1819 114.326 57.8184 116 57.8184Z" fill="black"/>
<path d="M122.061 57.8184C123.734 57.8184 125.091 59.1819 125.091 60.8638C125.091 62.5458 123.734 63.9093 122.061 63.9093C120.387 63.9093 119.03 62.5458 119.03 60.8638C119.03 59.1819 120.387 57.8184 122.061 57.8184Z" fill="black"/>
<path d="M128.121 57.8184C129.795 57.8184 131.151 59.1819 131.151 60.8638C131.151 62.5458 129.795 63.9093 128.121 63.9093C126.448 63.9093 125.091 62.5458 125.091 60.8638C125.091 59.1819 126.448 57.8184 128.121 57.8184Z" fill="black"/>
<path d="M31.1514 63.9092C32.8251 63.9092 34.1817 65.2727 34.1817 66.9546C34.1817 68.6367 32.8251 70.0001 31.1514 70.0001C29.4778 70.0001 28.1211 68.6367 28.1211 66.9546C28.1211 65.2727 29.4778 63.9092 31.1514 63.9092Z" fill="black"/>
<path d="M43.2725 63.9092C44.9462 63.9092 46.3028 65.2727 46.3028 66.9546C46.3028 68.6367 44.9462 70.0001 43.2725 70.0001C41.5989 70.0001 40.2422 68.6367 40.2422 66.9546C40.2422 65.2727 41.5989 63.9092 43.2725 63.9092Z" fill="black"/>
<path d="M49.333 63.9092C51.0067 63.9092 52.3633 65.2727 52.3633 66.9546C52.3633 68.6367 51.0067 70.0001 49.333 70.0001C47.6595 70.0001 46.3027 68.6367 46.3027 66.9546C46.3027 65.2727 47.6595 63.9092 49.333 63.9092Z" fill="black"/>
<path d="M55.3936 63.9092C57.0672 63.9092 58.4239 65.2727 58.4239 66.9546C58.4239 68.6367 57.0672 70.0001 55.3936 70.0001C53.72 70.0001 52.3633 68.6367 52.3633 66.9546C52.3633 65.2727 53.72 63.9092 55.3936 63.9092Z" fill="black"/>
<path d="M67.5147 63.9092C69.1883 63.9092 70.545 65.2727 70.545 66.9546C70.545 68.6367 69.1883 70.0001 67.5147 70.0001C65.8411 70.0001 64.4844 68.6367 64.4844 66.9546C64.4844 65.2727 65.8411 63.9092 67.5147 63.9092Z" fill="black"/>
<path d="M79.6367 63.9092C81.3104 63.9092 82.6671 65.2727 82.6671 66.9546C82.6671 68.6367 81.3104 70.0001 79.6367 70.0001C77.9632 70.0001 76.6064 68.6367 76.6064 66.9546C76.6064 65.2727 77.9632 63.9092 79.6367 63.9092Z" fill="black"/>
<path d="M85.6973 63.9092C87.371 63.9092 88.7276 65.2727 88.7276 66.9546C88.7276 68.6367 87.371 70.0001 85.6973 70.0001C84.0237 70.0001 82.667 68.6367 82.667 66.9546C82.667 65.2727 84.0237 63.9092 85.6973 63.9092Z" fill="black"/>
<path d="M103.879 63.9092C105.553 63.9092 106.909 65.2727 106.909 66.9546C106.909 68.6367 105.553 70.0001 103.879 70.0001C102.205 70.0001 100.849 68.6367 100.849 66.9546C100.849 65.2727 102.205 63.9092 103.879 63.9092Z" fill="black"/>
<path d="M109.939 63.9092C111.613 63.9092 112.97 65.2727 112.97 66.9546C112.97 68.6367 111.613 70.0001 109.939 70.0001C108.266 70.0001 106.909 68.6367 106.909 66.9546C106.909 65.2727 108.266 63.9092 109.939 63.9092Z" fill="black"/>
<path d="M116 63.9092C117.674 63.9092 119.03 65.2727 119.03 66.9546C119.03 68.6367 117.674 70.0001 116 70.0001C114.326 70.0001 112.97 68.6367 112.97 66.9546C112.97 65.2727 114.326 63.9092 116 63.9092Z" fill="black"/>
<path d="M128.121 63.9092C129.795 63.9092 131.151 65.2727 131.151 66.9546C131.151 68.6367 129.795 70.0001 128.121 70.0001C126.448 70.0001 125.091 68.6367 125.091 66.9546C125.091 65.2727 126.448 63.9092 128.121 63.9092Z" fill="black"/>
<path d="M146.303 63.9092C147.976 63.9092 149.333 65.2727 149.333 66.9546C149.333 68.6367 147.976 70.0001 146.303 70.0001C144.629 70.0001 143.272 68.6367 143.272 66.9546C143.272 65.2727 144.629 63.9092 146.303 63.9092Z" fill="black"/>
<path d="M170.546 63.9092C172.22 63.9092 173.576 65.2727 173.576 66.9546C173.576 68.6367 172.22 70.0001 170.546 70.0001C168.872 70.0001 167.516 68.6367 167.516 66.9546C167.516 65.2727 168.872 63.9092 170.546 63.9092Z" fill="black"/>
<path d="M188.728 63.9092C190.401 63.9092 191.758 65.2727 191.758 66.9546C191.758 68.6367 190.401 70.0001 188.728 70.0001C187.054 70.0001 185.697 68.6367 185.697 66.9546C185.697 65.2727 187.054 63.9092 188.728 63.9092Z" fill="black"/>
<path d="M19.0303 70C20.704 70 22.0606 71.3635 22.0606 73.0455C22.0606 74.7275 20.704 76.0909 19.0303 76.0909C17.3567 76.0909 16 74.7275 16 73.0455C16 71.3635 17.3567 70 19.0303 70Z" fill="black"/>
<path d="M31.1514 70C32.8251 70 34.1817 71.3635 34.1817 73.0455C34.1817 74.7275 32.8251 76.0909 31.1514 76.0909C29.4778 76.0909 28.1211 74.7275 28.1211 73.0455C28.1211 71.3635 29.4778 70 31.1514 70Z" fill="black"/>
<path d="M79.6367 70C81.3104 70 82.6671 71.3635 82.6671 73.0455C82.6671 74.7275 81.3104 76.0909 79.6367 76.0909C77.9632 76.0909 76.6064 74.7275 76.6064 73.0455C76.6064 71.3635 77.9632 70 79.6367 70Z" fill="black"/>
<path d="M91.7578 70C93.4315 70 94.7881 71.3635 94.7881 73.0455C94.7881 74.7275 93.4315 76.0909 91.7578 76.0909C90.0843 76.0909 88.7275 74.7275 88.7275 73.0455C88.7275 71.3635 90.0843 70 91.7578 70Z" fill="black"/>
<path d="M97.8184 70C99.492 70 100.849 71.3635 100.849 73.0455C100.849 74.7275 99.492 76.0909 97.8184 76.0909C96.1448 76.0909 94.7881 74.7275 94.7881 73.0455C94.7881 71.3635 96.1448 70 97.8184 70Z" fill="black"/>
<path d="M122.061 70C123.734 70 125.091 71.3635 125.091 73.0455C125.091 74.7275 123.734 76.0909 122.061 76.0909C120.387 76.0909 119.03 74.7275 119.03 73.0455C119.03 71.3635 120.387 70 122.061 70Z" fill="black"/>
<path d="M128.121 70C129.795 70 131.151 71.3635 131.151 73.0455C131.151 74.7275 129.795 76.0909 128.121 76.0909C126.448 76.0909 125.091 74.7275 125.091 73.0455C125.091 71.3635 126.448 70 128.121 70Z" fill="black"/>
<path d="M134.182 70C135.855 70 137.212 71.3635 137.212 73.0455C137.212 74.7275 135.855 76.0909 134.182 76.0909C132.508 76.0909 131.151 74.7275 131.151 73.0455C131.151 71.3635 132.508 70 134.182 70Z" fill="black"/>
<path d="M152.363 70C154.037 70 155.394 71.3635 155.394 73.0455C155.394 74.7275 154.037 76.0909 152.363 76.0909C150.69 76.0909 149.333 74.7275 149.333 73.0455C149.333 71.3635 150.69 70 152.363 70Z" fill="black"/>
<path d="M158.424 70C160.098 70 161.454 71.3635 161.454 73.0455C161.454 74.7275 160.098 76.0909 158.424 76.0909C156.75 76.0909 155.394 74.7275 155.394 73.0455C155.394 71.3635 156.75 70 158.424 70Z" fill="black"/>
<path d="M176.606 70C178.28 70 179.637 71.3635 179.637 73.0455C179.637 74.7275 178.28 76.0909 176.606 76.0909C174.933 76.0909 173.576 74.7275 173.576 73.0455C173.576 71.3635 174.933 70 176.606 70Z" fill="black"/>
<path d="M188.728 70C190.401 70 191.758 71.3635 191.758 73.0455C191.758 74.7275 190.401 76.0909 188.728 76.0909C187.054 76.0909 185.697 74.7275 185.697 73.0455C185.697 71.3635 187.054 70 188.728 70Z" fill="black"/>
<path d="M31.1514 76.0908C32.8251 76.0908 34.1817 77.4543 34.1817 79.1363C34.1817 80.8183 32.8251 82.1817 31.1514 82.1817C29.4778 82.1817 28.1211 80.8183 28.1211 79.1363C28.1211 77.4543 29.4778 76.0908 31.1514 76.0908Z" fill="black"/>
<path d="M43.2725 76.0908C44.9462 76.0908 46.3028 77.4543 46.3028 79.1363C46.3028 80.8183 44.9462 82.1817 43.2725 82.1817C41.5989 82.1817 40.2422 80.8183 40.2422 79.1363C40.2422 77.4543 41.5989 76.0908 43.2725 76.0908Z" fill="black"/>
<path d="M55.3936 76.0908C57.0672 76.0908 58.4239 77.4543 58.4239 79.1363C58.4239 80.8183 57.0672 82.1817 55.3936 82.1817C53.72 82.1817 52.3633 80.8183 52.3633 79.1363C52.3633 77.4543 53.72 76.0908 55.3936 76.0908Z" fill="black"/>
<path d="M67.5147 76.0908C69.1883 76.0908 70.545 77.4543 70.545 79.1363C70.545 80.8183 69.1883 82.1817 67.5147 82.1817C65.8411 82.1817 64.4844 80.8183 64.4844 79.1363C64.4844 77.4543 65.8411 76.0908 67.5147 76.0908Z" fill="black"/>
<path d="M164.484 76.0908C166.158 76.0908 167.515 77.4543 167.515 79.1363C167.515 80.8183 166.158 82.1817 164.484 82.1817C162.811 82.1817 161.454 80.8183 161.454 79.1363C161.454 77.4543 162.811 76.0908 164.484 76.0908Z" fill="black"/>
<path d="M170.546 76.0908C172.22 76.0908 173.576 77.4543 173.576 79.1363C173.576 80.8183 172.22 82.1817 170.546 82.1817C168.872 82.1817 167.516 80.8183 167.516 79.1363C167.516 77.4543 168.872 76.0908 170.546 76.0908Z" fill="black"/>
<path d="M182.667 76.0908C184.341 76.0908 185.697 77.4543 185.697 79.1363C185.697 80.8183 184.341 82.1817 182.667 82.1817C180.993 82.1817 179.637 80.8183 179.637 79.1363C179.637 77.4543 180.993 76.0908 182.667 76.0908Z" fill="black"/>
<path d="M188.728 76.0908C190.401 76.0908 191.758 77.4543 191.758 79.1363C191.758 80.8183 190.401 82.1817 188.728 82.1817C187.054 82.1817 185.697 80.8183 185.697 79.1363C185.697 77.4543 187.054 76.0908 188.728 76.0908Z" fill="black"/>
<path d="M19.0303 82.1816C20.704 82.1816 22.0606 83.5452 22.0606 85.2271C22.0606 86.9091 20.704 88.2725 19.0303 88.2725C17.3567 88.2725 16 86.9091 16 85.2271C16 83.5452 17.3567 82.1816 19.0303 82.1816Z" fill="black"/>
<path d="M31.1514 82.1816C32.8251 82.1816 34.1817 83.5452 34.1817 85.2271C34.1817 86.9091 32.8251 88.2725 31.1514 88.2725C29.4778 88.2725 28.1211 86.9091 28.1211 85.2271C28.1211 83.5452 29.4778 82.1816 31.1514 82.1816Z" fill="black"/>
<path d="M61.4541 82.1816C63.1278 82.1816 64.4844 83.5452 64.4844 85.2271C64.4844 86.9091 63.1278 88.2725 61.4541 88.2725C59.7806 88.2725 58.4238 86.9091 58.4238 85.2271C58.4238 83.5452 59.7806 82.1816 61.4541 82.1816Z" fill="black"/>
<path d="M67.5147 82.1816C69.1883 82.1816 70.545 83.5452 70.545 85.2271C70.545 86.9091 69.1883 88.2725 67.5147 88.2725C65.8411 88.2725 64.4844 86.9091 64.4844 85.2271C64.4844 83.5452 65.8411 82.1816 67.5147 82.1816Z" fill="black"/>
<path d="M73.5762 82.1816C75.2499 82.1816 76.6065 83.5452 76.6065 85.2271C76.6065 86.9091 75.2499 88.2725 73.5762 88.2725C71.9026 88.2725 70.5459 86.9091 70.5459 85.2271C70.5459 83.5452 71.9026 82.1816 73.5762 82.1816Z" fill="black"/>
<path d="M134.182 82.1816C135.855 82.1816 137.212 83.5452 137.212 85.2271C137.212 86.9091 135.855 88.2725 134.182 88.2725C132.508 88.2725 131.151 86.9091 131.151 85.2271C131.151 83.5452 132.508 82.1816 134.182 82.1816Z" fill="black"/>
<path d="M146.303 82.1816C147.976 82.1816 149.333 83.5452 149.333 85.2271C149.333 86.9091 147.976 88.2725 146.303 88.2725C144.629 88.2725 143.272 86.9091 143.272 85.2271C143.272 83.5452 144.629 82.1816 146.303 82.1816Z" fill="black"/>
<path d="M152.363 82.1816C154.037 82.1816 155.394 83.5452 155.394 85.2271C155.394 86.9091 154.037 88.2725 152.363 88.2725C150.69 88.2725 149.333 86.9091 149.333 85.2271C149.333 83.5452 150.69 82.1816 152.363 82.1816Z" fill="black"/>
<path d="M170.546 82.1816C172.22 82.1816 173.576 83.5452 173.576 85.2271C173.576 86.9091 172.22 88.2725 170.546 88.2725C168.872 88.2725 167.516 86.9091 167.516 85.2271C167.516 83.5452 168.872 82.1816 170.546 82.1816Z" fill="black"/>
<path d="M182.667 82.1816C184.341 82.1816 185.697 83.5452 185.697 85.2271C185.697 86.9091 184.341 88.2725 182.667 88.2725C180.993 88.2725 179.637 86.9091 179.637 85.2271C179.637 83.5452 180.993 82.1816 182.667 82.1816Z" fill="black"/>
<path d="M19.0303 88.2725C20.704 88.2725 22.0606 89.636 22.0606 91.3179C22.0606 92.9999 20.704 94.3634 19.0303 94.3634C17.3567 94.3634 16 92.9999 16 91.3179C16 89.636 17.3567 88.2725 19.0303 88.2725Z" fill="black"/>
<path d="M43.2725 88.2725C44.9462 88.2725 46.3028 89.636 46.3028 91.3179C46.3028 92.9999 44.9462 94.3634 43.2725 94.3634C41.5989 94.3634 40.2422 92.9999 40.2422 91.3179C40.2422 89.636 41.5989 88.2725 43.2725 88.2725Z" fill="black"/>
<path d="M55.3936 88.2725C57.0672 88.2725 58.4239 89.636 58.4239 91.3179C58.4239 92.9999 57.0672 94.3634 55.3936 94.3634C53.72 94.3634 52.3633 92.9999 52.3633 91.3179C52.3633 89.636 53.72 88.2725 55.3936 88.2725Z" fill="black"/>
<path d="M73.5762 88.2725C75.2499 88.2725 76.6065 89.636 76.6065 91.3179C76.6065 92.9999 75.2499 94.3634 73.5762 94.3634C71.9026 94.3634 70.5459 92.9999 70.5459 91.3179C70.5459 89.636 71.9026 88.2725 73.5762 88.2725Z" fill="black"/>
<path d="M140.242 88.2725C141.916 88.2725 143.273 89.636 143.273 91.3179C143.273 92.9999 141.916 94.3634 140.242 94.3634C138.569 94.3634 137.212 92.9999 137.212 91.3179C137.212 89.636 138.569 88.2725 140.242 88.2725Z" fill="black"/>
<path d="M152.363 88.2725C154.037 88.2725 155.394 89.636 155.394 91.3179C155.394 92.9999 154.037 94.3634 152.363 94.3634C150.69 94.3634 149.333 92.9999 149.333 91.3179C149.333 89.636 150.69 88.2725 152.363 88.2725Z" fill="black"/>
<path d="M158.424 88.2725C160.098 88.2725 161.454 89.636 161.454 91.3179C161.454 92.9999 160.098 94.3634 158.424 94.3634C156.75 94.3634 155.394 92.9999 155.394 91.3179C155.394 89.636 156.75 88.2725 158.424 88.2725Z" fill="black"/>
<path d="M170.546 88.2725C172.22 88.2725 173.576 89.636 173.576 91.3179C173.576 92.9999 172.22 94.3634 170.546 94.3634C168.872 94.3634 167.516 92.9999 167.516 91.3179C167.516 89.636 168.872 88.2725 170.546 88.2725Z" fill="black"/>
<path d="M43.2725 94.3633C44.9462 94.3633 46.3028 95.7268 46.3028 97.4087C46.3028 99.0908 44.9462 100.454 43.2725 100.454C41.5989 100.454 40.2422 99.0908 40.2422 97.4087C40.2422 95.7268 41.5989 94.3633 43.2725 94.3633Z" fill="black"/>
<path d="M49.333 94.3633C51.0067 94.3633 52.3633 95.7268 52.3633 97.4087C52.3633 99.0908 51.0067 100.454 49.333 100.454C47.6595 100.454 46.3027 99.0908 46.3027 97.4087C46.3027 95.7268 47.6595 94.3633 49.333 94.3633Z" fill="black"/>
<path d="M61.4541 94.3633C63.1278 94.3633 64.4844 95.7268 64.4844 97.4087C64.4844 99.0908 63.1278 100.454 61.4541 100.454C59.7806 100.454 58.4238 99.0908 58.4238 97.4087C58.4238 95.7268 59.7806 94.3633 61.4541 94.3633Z" fill="black"/>
<path d="M140.242 94.3633C141.916 94.3633 143.273 95.7268 143.273 97.4087C143.273 99.0908 141.916 100.454 140.242 100.454C138.569 100.454 137.212 99.0908 137.212 97.4087C137.212 95.7268 138.569 94.3633 140.242 94.3633Z" fill="black"/>
<path d="M146.303 94.3633C147.976 94.3633 149.333 95.7268 149.333 97.4087C149.333 99.0908 147.976 100.454 146.303 100.454C144.629 100.454 143.272 99.0908 143.272 97.4087C143.272 95.7268 144.629 94.3633 146.303 94.3633Z" fill="black"/>
<path d="M152.363 94.3633C154.037 94.3633 155.394 95.7268 155.394 97.4087C155.394 99.0908 154.037 100.454 152.363 100.454C150.69 100.454 149.333 99.0908 149.333 97.4087C149.333 95.7268 150.69 94.3633 152.363 94.3633Z" fill="black"/>
<path d="M158.424 94.3633C160.098 94.3633 161.454 95.7268 161.454 97.4087C161.454 99.0908 160.098 100.454 158.424 100.454C156.75 100.454 155.394 99.0908 155.394 97.4087C155.394 95.7268 156.75 94.3633 158.424 94.3633Z" fill="black"/>
<path d="M182.667 94.3633C184.341 94.3633 185.697 95.7268 185.697 97.4087C185.697 99.0908 184.341 100.454 182.667 100.454C180.993 100.454 179.637 99.0908 179.637 97.4087C179.637 95.7268 180.993 94.3633 182.667 94.3633Z" fill="black"/>
<path d="M188.728 94.3633C190.401 94.3633 191.758 95.7268 191.758 97.4087C191.758 99.0908 190.401 100.454 188.728 100.454C187.054 100.454 185.697 99.0908 185.697 97.4087C185.697 95.7268 187.054 94.3633 188.728 94.3633Z" fill="black"/>
<path d="M25.0908 100.454C26.7645 100.454 28.1212 101.818 28.1212 103.5C28.1212 105.182 26.7645 106.545 25.0908 106.545C23.4173 106.545 22.0605 105.182 22.0605 103.5C22.0605 101.818 23.4173 100.454 25.0908 100.454Z" fill="black"/>
<path d="M55.3936 100.454C57.0672 100.454 58.4239 101.818 58.4239 103.5C58.4239 105.182 57.0672 106.545 55.3936 106.545C53.72 106.545 52.3633 105.182 52.3633 103.5C52.3633 101.818 53.72 100.454 55.3936 100.454Z" fill="black"/>
<path d="M61.4541 100.454C63.1278 100.454 64.4844 101.818 64.4844 103.5C64.4844 105.182 63.1278 106.545 61.4541 106.545C59.7806 106.545 58.4238 105.182 58.4238 103.5C58.4238 101.818 59.7806 100.454 61.4541 100.454Z" fill="black"/>
<path d="M73.5762 100.454C75.2499 100.454 76.6065 101.818 76.6065 103.5C76.6065 105.182 75.2499 106.545 73.5762 106.545C71.9026 106.545 70.5459 105.182 70.5459 103.5C70.5459 101.818 71.9026 100.454 73.5762 100.454Z" fill="black"/>
<path d="M140.242 100.454C141.916 100.454 143.273 101.818 143.273 103.5C143.273 105.182 141.916 106.545 140.242 106.545C138.569 106.545 137.212 105.182 137.212 103.5C137.212 101.818 138.569 100.454 140.242 100.454Z" fill="black"/>
<path d="M152.363 100.454C154.037 100.454 155.394 101.818 155.394 103.5C155.394 105.182 154.037 106.545 152.363 106.545C150.69 106.545 149.333 105.182 149.333 103.5C149.333 101.818 150.69 100.454 152.363 100.454Z" fill="black"/>
<path d="M158.424 100.454C160.098 100.454 161.454 101.818 161.454 103.5C161.454 105.182 160.098 106.545 158.424 106.545C156.75 106.545 155.394 105.182 155.394 103.5C155.394 101.818 156.75 100.454 158.424 100.454Z" fill="black"/>
<path d="M176.606 100.454C178.28 100.454 179.637 101.818 179.637 103.5C179.637 105.182 178.28 106.545 176.606 106.545C174.933 106.545 173.576 105.182 173.576 103.5C173.576 101.818 174.933 100.454 176.606 100.454Z" fill="black"/>
<path d="M188.728 100.454C190.401 100.454 191.758 101.818 191.758 103.5C191.758 105.182 190.401 106.545 188.728 106.545C187.054 106.545 185.697 105.182 185.697 103.5C185.697 101.818 187.054 100.454 188.728 100.454Z" fill="black"/>
<path d="M25.0908 106.545C26.7645 106.545 28.1212 107.908 28.1212 109.59C28.1212 111.272 26.7645 112.636 25.0908 112.636C23.4173 112.636 22.0605 111.272 22.0605 109.59C22.0605 107.908 23.4173 106.545 25.0908 106.545Z" fill="black"/>
<path d="M31.1514 106.545C32.8251 106.545 34.1817 107.908 34.1817 109.59C34.1817 111.272 32.8251 112.636 31.1514 112.636C29.4778 112.636 28.1211 111.272 28.1211 109.59C28.1211 107.908 29.4778 106.545 31.1514 106.545Z" fill="black"/>
<path d="M43.2725 106.545C44.9462 106.545 46.3028 107.908 46.3028 109.59C46.3028 111.272 44.9462 112.636 43.2725 112.636C41.5989 112.636 40.2422 111.272 40.2422 109.59C40.2422 107.908 41.5989 106.545 43.2725 106.545Z" fill="black"/>
<path d="M49.333 106.545C51.0067 106.545 52.3633 107.908 52.3633 109.59C52.3633 111.272 51.0067 112.636 49.333 112.636C47.6595 112.636 46.3027 111.272 46.3027 109.59C46.3027 107.908 47.6595 106.545 49.333 106.545Z" fill="black"/>
<path d="M61.4541 106.545C63.1278 106.545 64.4844 107.908 64.4844 109.59C64.4844 111.272 63.1278 112.636 61.4541 112.636C59.7806 112.636 58.4238 111.272 58.4238 109.59C58.4238 107.908 59.7806 106.545 61.4541 106.545Z" fill="black"/>
<path d="M67.5147 106.545C69.1883 106.545 70.545 107.908 70.545 109.59C70.545 111.272 69.1883 112.636 67.5147 112.636C65.8411 112.636 64.4844 111.272 64.4844 109.59C64.4844 107.908 65.8411 106.545 67.5147 106.545Z" fill="black"/>
<path d="M158.424 106.545C160.098 106.545 161.454 107.908 161.454 109.59C161.454 111.272 160.098 112.636 158.424 112.636C156.75 112.636 155.394 111.272 155.394 109.59C155.394 107.908 156.75 106.545 158.424 106.545Z" fill="black"/>
<path d="M19.0303 112.636C20.704 112.636 22.0606 113.999 22.0606 115.681C22.0606 117.363 20.704 118.727 19.0303 118.727C17.3567 118.727 16 117.363 16 115.681C16 113.999 17.3567 112.636 19.0303 112.636Z" fill="black"/>
<path d="M37.2119 112.636C38.8856 112.636 40.2422 113.999 40.2422 115.681C40.2422 117.363 38.8856 118.727 37.2119 118.727C35.5384 118.727 34.1816 117.363 34.1816 115.681C34.1816 113.999 35.5384 112.636 37.2119 112.636Z" fill="black"/>
<path d="M49.333 112.636C51.0067 112.636 52.3633 113.999 52.3633 115.681C52.3633 117.363 51.0067 118.727 49.333 118.727C47.6595 118.727 46.3027 117.363 46.3027 115.681C46.3027 113.999 47.6595 112.636 49.333 112.636Z" fill="black"/>
<path d="M55.3936 112.636C57.0672 112.636 58.4239 113.999 58.4239 115.681C58.4239 117.363 57.0672 118.727 55.3936 118.727C53.72 118.727 52.3633 117.363 52.3633 115.681C52.3633 113.999 53.72 112.636 55.3936 112.636Z" fill="black"/>
<path d="M140.242 112.636C141.916 112.636 143.273 113.999 143.273 115.681C143.273 117.363 141.916 118.727 140.242 118.727C138.569 118.727 137.212 117.363 137.212 115.681C137.212 113.999 138.569 112.636 140.242 112.636Z" fill="black"/>
<path d="M146.303 112.636C147.976 112.636 149.333 113.999 149.333 115.681C149.333 117.363 147.976 118.727 146.303 118.727C144.629 118.727 143.272 117.363 143.272 115.681C143.272 113.999 144.629 112.636 146.303 112.636Z" fill="black"/>
<path d="M152.363 112.636C154.037 112.636 155.394 113.999 155.394 115.681C155.394 117.363 154.037 118.727 152.363 118.727C150.69 118.727 149.333 117.363 149.333 115.681C149.333 113.999 150.69 112.636 152.363 112.636Z" fill="black"/>
<path d="M158.424 112.636C160.098 112.636 161.454 113.999 161.454 115.681C161.454 117.363 160.098 118.727 158.424 118.727C156.75 118.727 155.394 117.363 155.394 115.681C155.394 113.999 156.75 112.636 158.424 112.636Z" fill="black"/>
<path d="M170.546 112.636C172.22 112.636 173.576 113.999 173.576 115.681C173.576 117.363 172.22 118.727 170.546 118.727C168.872 118.727 167.516 117.363 167.516 115.681C167.516 113.999 168.872 112.636 170.546 112.636Z" fill="black"/>
<path d="M25.0908 118.728C26.7645 118.728 28.1212 120.091 28.1212 121.773C28.1212 123.455 26.7645 124.818 25.0908 124.818C23.4173 124.818 22.0605 123.455 22.0605 121.773C22.0605 120.091 23.4173 118.728 25.0908 118.728Z" fill="black"/>
<path d="M31.1514 118.728C32.8251 118.728 34.1817 120.091 34.1817 121.773C34.1817 123.455 32.8251 124.818 31.1514 124.818C29.4778 124.818 28.1211 123.455 28.1211 121.773C28.1211 120.091 29.4778 118.728 31.1514 118.728Z" fill="black"/>
<path d="M67.5147 118.728C69.1883 118.728 70.545 120.091 70.545 121.773C70.545 123.455 69.1883 124.818 67.5147 124.818C65.8411 124.818 64.4844 123.455 64.4844 121.773C64.4844 120.091 65.8411 118.728 67.5147 118.728Z" fill="black"/>
<path d="M134.182 118.728C135.855 118.728 137.212 120.091 137.212 121.773C137.212 123.455 135.855 124.818 134.182 124.818C132.508 124.818 131.151 123.455 131.151 121.773C131.151 120.091 132.508 118.728 134.182 118.728Z" fill="black"/>
<path d="M140.242 118.728C141.916 118.728 143.273 120.091 143.273 121.773C143.273 123.455 141.916 124.818 140.242 124.818C138.569 124.818 137.212 123.455 137.212 121.773C137.212 120.091 138.569 118.728 140.242 118.728Z" fill="black"/>
<path d="M146.303 118.728C147.976 118.728 149.333 120.091 149.333 121.773C149.333 123.455 147.976 124.818 146.303 124.818C144.629 124.818 143.272 123.455 143.272 121.773C143.272 120.091 144.629 118.728 146.303 118.728Z" fill="black"/>
<path d="M152.363 118.728C154.037 118.728 155.394 120.091 155.394 121.773C155.394 123.455 154.037 124.818 152.363 124.818C150.69 124.818 149.333 123.455 149.333 121.773C149.333 120.091 150.69 118.728 152.363 118.728Z" fill="black"/>
<path d="M182.667 118.728C184.341 118.728 185.697 120.091 185.697 121.773C185.697 123.455 184.341 124.818 182.667 124.818C180.993 124.818 179.637 123.455 179.637 121.773C179.637 120.091 180.993 118.728 182.667 118.728Z" fill="black"/>
<path d="M188.728 118.728C190.401 118.728 191.758 120.091 191.758 121.773C191.758 123.455 190.401 124.818 188.728 124.818C187.054 124.818 185.697 123.455 185.697 121.773C185.697 120.091 187.054 118.728 188.728 118.728Z" fill="black"/>
<path d="M19.0303 124.818C20.704 124.818 22.0606 126.182 22.0606 127.864C22.0606 129.546 20.704 130.909 19.0303 130.909C17.3567 130.909 16 129.546 16 127.864C16 126.182 17.3567 124.818 19.0303 124.818Z" fill="black"/>
<path d="M31.1514 124.818C32.8251 124.818 34.1817 126.182 34.1817 127.864C34.1817 129.546 32.8251 130.909 31.1514 130.909C29.4778 130.909 28.1211 129.546 28.1211 127.864C28.1211 126.182 29.4778 124.818 31.1514 124.818Z" fill="black"/>
<path d="M55.3936 124.818C57.0672 124.818 58.4239 126.182 58.4239 127.864C58.4239 129.546 57.0672 130.909 55.3936 130.909C53.72 130.909 52.3633 129.546 52.3633 127.864C52.3633 126.182 53.72 124.818 55.3936 124.818Z" fill="black"/>
<path d="M73.5762 124.818C75.2499 124.818 76.6065 126.182 76.6065 127.864C76.6065 129.546 75.2499 130.909 73.5762 130.909C71.9026 130.909 70.5459 129.546 70.5459 127.864C70.5459 126.182 71.9026 124.818 73.5762 124.818Z" fill="black"/>
<path d="M134.182 124.818C135.855 124.818 137.212 126.182 137.212 127.864C137.212 129.546 135.855 130.909 134.182 130.909C132.508 130.909 131.151 129.546 131.151 127.864C131.151 126.182 132.508 124.818 134.182 124.818Z" fill="black"/>
<path d="M140.242 124.818C141.916 124.818 143.273 126.182 143.273 127.864C143.273 129.546 141.916 130.909 140.242 130.909C138.569 130.909 137.212 129.546 137.212 127.864C137.212 126.182 138.569 124.818 140.242 124.818Z" fill="black"/>
<path d="M146.303 124.818C147.976 124.818 149.333 126.182 149.333 127.864C149.333 129.546 147.976 130.909 146.303 130.909C144.629 130.909 143.272 129.546 143.272 127.864C143.272 126.182 144.629 124.818 146.303 124.818Z" fill="black"/>
<path d="M164.484 124.818C166.158 124.818 167.515 126.182 167.515 127.864C167.515 129.546 166.158 130.909 164.484 130.909C162.811 130.909 161.454 129.546 161.454 127.864C161.454 126.182 162.811 124.818 164.484 124.818Z" fill="black"/>
<path d="M182.667 124.818C184.341 124.818 185.697 126.182 185.697 127.864C185.697 129.546 184.341 130.909 182.667 130.909C180.993 130.909 179.637 129.546 179.637 127.864C179.637 126.182 180.993 124.818 182.667 124.818Z" fill="black"/>
<path d="M188.728 124.818C190.401 124.818 191.758 126.182 191.758 127.864C191.758 129.546 190.401 130.909 188.728 130.909C187.054 130.909 185.697 129.546 185.697 127.864C185.697 126.182 187.054 124.818 188.728 124.818Z" fill="black"/>
<path d="M25.0908 130.909C26.7645 130.909 28.1212 132.273 28.1212 133.955C28.1212 135.637 26.7645 137 25.0908 137C23.4173 137 22.0605 135.637 22.0605 133.955C22.0605 132.273 23.4173 130.909 25.0908 130.909Z" fill="black"/>
<path d="M37.2119 130.909C38.8856 130.909 40.2422 132.273 40.2422 133.955C40.2422 135.637 38.8856 137 37.2119 137C35.5384 137 34.1816 135.637 34.1816 133.955C34.1816 132.273 35.5384 130.909 37.2119 130.909Z" fill="black"/>
<path d="M43.2725 130.909C44.9462 130.909 46.3028 132.273 46.3028 133.955C46.3028 135.637 44.9462 137 43.2725 137C41.5989 137 40.2422 135.637 40.2422 133.955C40.2422 132.273 41.5989 130.909 43.2725 130.909Z" fill="black"/>
<path d="M61.4541 130.909C63.1278 130.909 64.4844 132.273 64.4844 133.955C64.4844 135.637 63.1278 137 61.4541 137C59.7806 137 58.4238 135.637 58.4238 133.955C58.4238 132.273 59.7806 130.909 61.4541 130.909Z" fill="black"/>
<path d="M67.5147 130.909C69.1883 130.909 70.545 132.273 70.545 133.955C70.545 135.637 69.1883 137 67.5147 137C65.8411 137 64.4844 135.637 64.4844 133.955C64.4844 132.273 65.8411 130.909 67.5147 130.909Z" fill="black"/>
<path d="M73.5762 130.909C75.2499 130.909 76.6065 132.273 76.6065 133.955C76.6065 135.637 75.2499 137 73.5762 137C71.9026 137 70.5459 135.637 70.5459 133.955C70.5459 132.273 71.9026 130.909 73.5762 130.909Z" fill="black"/>
<path d="M91.7578 130.909C93.4315 130.909 94.7881 132.273 94.7881 133.955C94.7881 135.637 93.4315 137 91.7578 137C90.0843 137 88.7275 135.637 88.7275 133.955C88.7275 132.273 90.0843 130.909 91.7578 130.909Z" fill="black"/>
<path d="M116 130.909C117.674 130.909 119.03 132.273 119.03 133.955C119.03 135.637 117.674 137 116 137C114.326 137 112.97 135.637 112.97 133.955C112.97 132.273 114.326 130.909 116 130.909Z" fill="black"/>
<path d="M122.061 130.909C123.734 130.909 125.091 132.273 125.091 133.955C125.091 135.637 123.734 137 122.061 137C120.387 137 119.03 135.637 119.03 133.955C119.03 132.273 120.387 130.909 122.061 130.909Z" fill="black"/>
<path d="M140.242 130.909C141.916 130.909 143.273 132.273 143.273 133.955C143.273 135.637 141.916 137 140.242 137C138.569 137 137.212 135.637 137.212 133.955C137.212 132.273 138.569 130.909 140.242 130.909Z" fill="black"/>
<path d="M152.363 130.909C154.037 130.909 155.394 132.273 155.394 133.955C155.394 135.637 154.037 137 152.363 137C150.69 137 149.333 135.637 149.333 133.955C149.333 132.273 150.69 130.909 152.363 130.909Z" fill="black"/>
<path d="M164.484 130.909C166.158 130.909 167.515 132.273 167.515 133.955C167.515 135.637 166.158 137 164.484 137C162.811 137 161.454 135.637 161.454 133.955C161.454 132.273 162.811 130.909 164.484 130.909Z" fill="black"/>
<path d="M182.667 130.909C184.341 130.909 185.697 132.273 185.697 133.955C185.697 135.637 184.341 137 182.667 137C180.993 137 179.637 135.637 179.637 133.955C179.637 132.273 180.993 130.909 182.667 130.909Z" fill="black"/>
<path d="M19.0303 137C20.704 137 22.0606 138.364 22.0606 140.045C22.0606 141.727 20.704 143.091 19.0303 143.091C17.3567 143.091 16 141.727 16 140.045C16 138.364 17.3567 137 19.0303 137Z" fill="black"/>
<path d="M55.3936 137C57.0672 137 58.4239 138.364 58.4239 140.045C58.4239 141.727 57.0672 143.091 55.3936 143.091C53.72 143.091 52.3633 141.727 52.3633 140.045C52.3633 138.364 53.72 137 55.3936 137Z" fill="black"/>
<path d="M61.4541 137C63.1278 137 64.4844 138.364 64.4844 140.045C64.4844 141.727 63.1278 143.091 61.4541 143.091C59.7806 143.091 58.4238 141.727 58.4238 140.045C58.4238 138.364 59.7806 137 61.4541 137Z" fill="black"/>
<path d="M67.5147 137C69.1883 137 70.545 138.364 70.545 140.045C70.545 141.727 69.1883 143.091 67.5147 143.091C65.8411 143.091 64.4844 141.727 64.4844 140.045C64.4844 138.364 65.8411 137 67.5147 137Z" fill="black"/>
<path d="M79.6367 137C81.3104 137 82.6671 138.364 82.6671 140.045C82.6671 141.727 81.3104 143.091 79.6367 143.091C77.9632 143.091 76.6064 141.727 76.6064 140.045C76.6064 138.364 77.9632 137 79.6367 137Z" fill="black"/>
<path d="M85.6973 137C87.371 137 88.7276 138.364 88.7276 140.045C88.7276 141.727 87.371 143.091 85.6973 143.091C84.0237 143.091 82.667 141.727 82.667 140.045C82.667 138.364 84.0237 137 85.6973 137Z" fill="black"/>
<path d="M91.7578 137C93.4315 137 94.7881 138.364 94.7881 140.045C94.7881 141.727 93.4315 143.091 91.7578 143.091C90.0843 143.091 88.7275 141.727 88.7275 140.045C88.7275 138.364 90.0843 137 91.7578 137Z" fill="black"/>
<path d="M103.879 137C105.553 137 106.909 138.364 106.909 140.045C106.909 141.727 105.553 143.091 103.879 143.091C102.205 143.091 100.849 141.727 100.849 140.045C100.849 138.364 102.205 137 103.879 137Z" fill="black"/>
<path d="M109.939 137C111.613 137 112.97 138.364 112.97 140.045C112.97 141.727 111.613 143.091 109.939 143.091C108.266 143.091 106.909 141.727 106.909 140.045C106.909 138.364 108.266 137 109.939 137Z" fill="black"/>
<path d="M122.061 137C123.734 137 125.091 138.364 125.091 140.045C125.091 141.727 123.734 143.091 122.061 143.091C120.387 143.091 119.03 141.727 119.03 140.045C119.03 138.364 120.387 137 122.061 137Z" fill="black"/>
<path d="M128.121 137C129.795 137 131.151 138.364 131.151 140.045C131.151 141.727 129.795 143.091 128.121 143.091C126.448 143.091 125.091 141.727 125.091 140.045C125.091 138.364 126.448 137 128.121 137Z" fill="black"/>
<path d="M134.182 137C135.855 137 137.212 138.364 137.212 140.045C137.212 141.727 135.855 143.091 134.182 143.091C132.508 143.091 131.151 141.727 131.151 140.045C131.151 138.364 132.508 137 134.182 137Z" fill="black"/>
<path d="M140.242 137C141.916 137 143.273 138.364 143.273 140.045C143.273 141.727 141.916 143.091 140.242 143.091C138.569 143.091 137.212 141.727 137.212 140.045C137.212 138.364 138.569 137 140.242 137Z" fill="black"/>
<path d="M146.303 137C147.976 137 149.333 138.364 149.333 140.045C149.333 141.727 147.976 143.091 146.303 143.091C144.629 143.091 143.272 141.727 143.272 140.045C143.272 138.364 144.629 137 146.303 137Z" fill="black"/>
<path d="M152.363 137C154.037 137 155.394 138.364 155.394 140.045C155.394 141.727 154.037 143.091 152.363 143.091C150.69 143.091 149.333 141.727 149.333 140.045C149.333 138.364 150.69 137 152.363 137Z" fill="black"/>
<path d="M158.424 137C160.098 137 161.454 138.364 161.454 140.045C161.454 141.727 160.098 143.091 158.424 143.091C156.75 143.091 155.394 141.727 155.394 140.045C155.394 138.364 156.75 137 158.424 137Z" fill="black"/>
<path d="M164.484 137C166.158 137 167.515 138.364 167.515 140.045C167.515 141.727 166.158 143.091 164.484 143.091C162.811 143.091 161.454 141.727 161.454 140.045C161.454 138.364 162.811 137 164.484 137Z" fill="black"/>
<path d="M170.546 137C172.22 137 173.576 138.364 173.576 140.045C173.576 141.727 172.22 143.091 170.546 143.091C168.872 143.091 167.516 141.727 167.516 140.045C167.516 138.364 168.872 137 170.546 137Z" fill="black"/>
<path d="M182.667 137C184.341 137 185.697 138.364 185.697 140.045C185.697 141.727 184.341 143.091 182.667 143.091C180.993 143.091 179.637 141.727 179.637 140.045C179.637 138.364 180.993 137 182.667 137Z" fill="black"/>
<path d="M188.728 137C190.401 137 191.758 138.364 191.758 140.045C191.758 141.727 190.401 143.091 188.728 143.091C187.054 143.091 185.697 141.727 185.697 140.045C185.697 138.364 187.054 137 188.728 137Z" fill="black"/>
<path d="M67.5147 143.091C69.1883 143.091 70.545 144.454 70.545 146.136C70.545 147.818 69.1883 149.182 67.5147 149.182C65.8411 149.182 64.4844 147.818 64.4844 146.136C64.4844 144.454 65.8411 143.091 67.5147 143.091Z" fill="black"/>
<path d="M73.5762 143.091C75.2499 143.091 76.6065 144.454 76.6065 146.136C76.6065 147.818 75.2499 149.182 73.5762 149.182C71.9026 149.182 70.5459 147.818 70.5459 146.136C70.5459 144.454 71.9026 143.091 73.5762 143.091Z" fill="black"/>
<path d="M79.6367 143.091C81.3104 143.091 82.6671 144.454 82.6671 146.136C82.6671 147.818 81.3104 149.182 79.6367 149.182C77.9632 149.182 76.6064 147.818 76.6064 146.136C76.6064 144.454 77.9632 143.091 79.6367 143.091Z" fill="black"/>
<path d="M85.6973 143.091C87.371 143.091 88.7276 144.454 88.7276 146.136C88.7276 147.818 87.371 149.182 85.6973 149.182C84.0237 149.182 82.667 147.818 82.667 146.136C82.667 144.454 84.0237 143.091 85.6973 143.091Z" fill="black"/>
<path d="M91.7578 143.091C93.4315 143.091 94.7881 144.454 94.7881 146.136C94.7881 147.818 93.4315 149.182 91.7578 149.182C90.0843 149.182 88.7275 147.818 88.7275 146.136C88.7275 144.454 90.0843 143.091 91.7578 143.091Z" fill="black"/>
<path d="M103.879 143.091C105.553 143.091 106.909 144.454 106.909 146.136C106.909 147.818 105.553 149.182 103.879 149.182C102.205 149.182 100.849 147.818 100.849 146.136C100.849 144.454 102.205 143.091 103.879 143.091Z" fill="black"/>
<path d="M116 143.091C117.674 143.091 119.03 144.454 119.03 146.136C119.03 147.818 117.674 149.182 116 149.182C114.326 149.182 112.97 147.818 112.97 146.136C112.97 144.454 114.326 143.091 116 143.091Z" fill="black"/>
<path d="M128.121 143.091C129.795 143.091 131.151 144.454 131.151 146.136C131.151 147.818 129.795 149.182 128.121 149.182C126.448 149.182 125.091 147.818 125.091 146.136C125.091 144.454 126.448 143.091 128.121 143.091Z" fill="black"/>
<path d="M140.242 143.091C141.916 143.091 143.273 144.454 143.273 146.136C143.273 147.818 141.916 149.182 140.242 149.182C138.569 149.182 137.212 147.818 137.212 146.136C137.212 144.454 138.569 143.091 140.242 143.091Z" fill="black"/>
<path d="M164.484 143.091C166.158 143.091 167.515 144.454 167.515 146.136C167.515 147.818 166.158 149.182 164.484 149.182C162.811 149.182 161.454 147.818 161.454 146.136C161.454 144.454 162.811 143.091 164.484 143.091Z" fill="black"/>
<path d="M188.728 143.091C190.401 143.091 191.758 144.454 191.758 146.136C191.758 147.818 190.401 149.182 188.728 149.182C187.054 149.182 185.697 147.818 185.697 146.136C185.697 144.454 187.054 143.091 188.728 143.091Z" fill="black"/>
<path d="M73.5762 149.182C75.2499 149.182 76.6065 150.545 76.6065 152.227C76.6065 153.909 75.2499 155.273 73.5762 155.273C71.9026 155.273 70.5459 153.909 70.5459 152.227C70.5459 150.545 71.9026 149.182 73.5762 149.182Z" fill="black"/>
<path d="M79.6367 149.182C81.3104 149.182 82.6671 150.545 82.6671 152.227C82.6671 153.909 81.3104 155.273 79.6367 155.273C77.9632 155.273 76.6064 153.909 76.6064 152.227C76.6064 150.545 77.9632 149.182 79.6367 149.182Z" fill="black"/>
<path d="M85.6973 149.182C87.371 149.182 88.7276 150.545 88.7276 152.227C88.7276 153.909 87.371 155.273 85.6973 155.273C84.0237 155.273 82.667 153.909 82.667 152.227C82.667 150.545 84.0237 149.182 85.6973 149.182Z" fill="black"/>
<path d="M97.8184 149.182C99.492 149.182 100.849 150.545 100.849 152.227C100.849 153.909 99.492 155.273 97.8184 155.273C96.1448 155.273 94.7881 153.909 94.7881 152.227C94.7881 150.545 96.1448 149.182 97.8184 149.182Z" fill="black"/>
<path d="M103.879 149.182C105.553 149.182 106.909 150.545 106.909 152.227C106.909 153.909 105.553 155.273 103.879 155.273C102.205 155.273 100.849 153.909 100.849 152.227C100.849 150.545 102.205 149.182 103.879 149.182Z" fill="black"/>
<path d="M122.061 149.182C123.734 149.182 125.091 150.545 125.091 152.227C125.091 153.909 123.734 155.273 122.061 155.273C120.387 155.273 119.03 153.909 119.03 152.227C119.03 150.545 120.387 149.182 122.061 149.182Z" fill="black"/>
<path d="M134.182 149.182C135.855 149.182 137.212 150.545 137.212 152.227C137.212 153.909 135.855 155.273 134.182 155.273C132.508 155.273 131.151 153.909 131.151 152.227C131.151 150.545 132.508 149.182 134.182 149.182Z" fill="black"/>
<path d="M140.242 149.182C141.916 149.182 143.273 150.545 143.273 152.227C143.273 153.909 141.916 155.273 140.242 155.273C138.569 155.273 137.212 153.909 137.212 152.227C137.212 150.545 138.569 149.182 140.242 149.182Z" fill="black"/>
<path d="M152.363 149.182C154.037 149.182 155.394 150.545 155.394 152.227C155.394 153.909 154.037 155.273 152.363 155.273C150.69 155.273 149.333 153.909 149.333 152.227C149.333 150.545 150.69 149.182 152.363 149.182Z" fill="black"/>
<path d="M164.484 149.182C166.158 149.182 167.515 150.545 167.515 152.227C167.515 153.909 166.158 155.273 164.484 155.273C162.811 155.273 161.454 153.909 161.454 152.227C161.454 150.545 162.811 149.182 164.484 149.182Z" fill="black"/>
<path d="M176.606 149.182C178.28 149.182 179.637 150.545 179.637 152.227C179.637 153.909 178.28 155.273 176.606 155.273C174.933 155.273 173.576 153.909 173.576 152.227C173.576 150.545 174.933 149.182 176.606 149.182Z" fill="black"/>
<path d="M182.667 149.182C184.341 149.182 185.697 150.545 185.697 152.227C185.697 153.909 184.341 155.273 182.667 155.273C180.993 155.273 179.637 153.909 179.637 152.227C179.637 150.545 180.993 149.182 182.667 149.182Z" fill="black"/>
<path d="M188.728 149.182C190.401 149.182 191.758 150.545 191.758 152.227C191.758 153.909 190.401 155.273 188.728 155.273C187.054 155.273 185.697 153.909 185.697 152.227C185.697 150.545 187.054 149.182 188.728 149.182Z" fill="black"/>
<path d="M67.5147 155.272C69.1883 155.272 70.545 156.636 70.545 158.318C70.545 160 69.1883 161.363 67.5147 161.363C65.8411 161.363 64.4844 160 64.4844 158.318C64.4844 156.636 65.8411 155.272 67.5147 155.272Z" fill="black"/>
<path d="M73.5762 155.272C75.2499 155.272 76.6065 156.636 76.6065 158.318C76.6065 160 75.2499 161.363 73.5762 161.363C71.9026 161.363 70.5459 160 70.5459 158.318C70.5459 156.636 71.9026 155.272 73.5762 155.272Z" fill="black"/>
<path d="M79.6367 155.272C81.3104 155.272 82.6671 156.636 82.6671 158.318C82.6671 160 81.3104 161.363 79.6367 161.363C77.9632 161.363 76.6064 160 76.6064 158.318C76.6064 156.636 77.9632 155.272 79.6367 155.272Z" fill="black"/>
<path d="M103.879 155.272C105.553 155.272 106.909 156.636 106.909 158.318C106.909 160 105.553 161.363 103.879 161.363C102.205 161.363 100.849 160 100.849 158.318C100.849 156.636 102.205 155.272 103.879 155.272Z" fill="black"/>
<path d="M109.939 155.272C111.613 155.272 112.97 156.636 112.97 158.318C112.97 160 111.613 161.363 109.939 161.363C108.266 161.363 106.909 160 106.909 158.318C106.909 156.636 108.266 155.272 109.939 155.272Z" fill="black"/>
<path d="M116 155.272C117.674 155.272 119.03 156.636 119.03 158.318C119.03 160 117.674 161.363 116 161.363C114.326 161.363 112.97 160 112.97 158.318C112.97 156.636 114.326 155.272 116 155.272Z" fill="black"/>
<path d="M128.121 155.272C129.795 155.272 131.151 156.636 131.151 158.318C131.151 160 129.795 161.363 128.121 161.363C126.448 161.363 125.091 160 125.091 158.318C125.091 156.636 126.448 155.272 128.121 155.272Z" fill="black"/>
<path d="M140.242 155.272C141.916 155.272 143.273 156.636 143.273 158.318C143.273 160 141.916 161.363 140.242 161.363C138.569 161.363 137.212 160 137.212 158.318C137.212 156.636 138.569 155.272 140.242 155.272Z" fill="black"/>
<path d="M164.484 155.272C166.158 155.272 167.515 156.636 167.515 158.318C167.515 160 166.158 161.363 164.484 161.363C162.811 161.363 161.454 160 161.454 158.318C161.454 156.636 162.811 155.272 164.484 155.272Z" fill="black"/>
<path d="M188.728 155.272C190.401 155.272 191.758 156.636 191.758 158.318C191.758 160 190.401 161.363 188.728 161.363C187.054 161.363 185.697 160 185.697 158.318C185.697 156.636 187.054 155.272 188.728 155.272Z" fill="black"/>
<path d="M67.5147 161.363C69.1883 161.363 70.545 162.727 70.545 164.409C70.545 166.091 69.1883 167.454 67.5147 167.454C65.8411 167.454 64.4844 166.091 64.4844 164.409C64.4844 162.727 65.8411 161.363 67.5147 161.363Z" fill="black"/>
<path d="M73.5762 161.363C75.2499 161.363 76.6065 162.727 76.6065 164.409C76.6065 166.091 75.2499 167.454 73.5762 167.454C71.9026 167.454 70.5459 166.091 70.5459 164.409C70.5459 162.727 71.9026 161.363 73.5762 161.363Z" fill="black"/>
<path d="M85.6973 161.363C87.371 161.363 88.7276 162.727 88.7276 164.409C88.7276 166.091 87.371 167.454 85.6973 167.454C84.0237 167.454 82.667 166.091 82.667 164.409C82.667 162.727 84.0237 161.363 85.6973 161.363Z" fill="black"/>
<path d="M97.8184 161.363C99.492 161.363 100.849 162.727 100.849 164.409C100.849 166.091 99.492 167.454 97.8184 167.454C96.1448 167.454 94.7881 166.091 94.7881 164.409C94.7881 162.727 96.1448 161.363 97.8184 161.363Z" fill="black"/>
<path d="M103.879 161.363C105.553 161.363 106.909 162.727 106.909 164.409C106.909 166.091 105.553 167.454 103.879 167.454C102.205 167.454 100.849 166.091 100.849 164.409C100.849 162.727 102.205 161.363 103.879 161.363Z" fill="black"/>
<path d="M128.121 161.363C129.795 161.363 131.151 162.727 131.151 164.409C131.151 166.091 129.795 167.454 128.121 167.454C126.448 167.454 125.091 166.091 125.091 164.409C125.091 162.727 126.448 161.363 128.121 161.363Z" fill="black"/>
<path d="M140.242 161.363C141.916 161.363 143.273 162.727 143.273 164.409C143.273 166.091 141.916 167.454 140.242 167.454C138.569 167.454 137.212 166.091 137.212 164.409C137.212 162.727 138.569 161.363 140.242 161.363Z" fill="black"/>
<path d="M146.303 161.363C147.976 161.363 149.333 162.727 149.333 164.409C149.333 166.091 147.976 167.454 146.303 167.454C144.629 167.454 143.272 166.091 143.272 164.409C143.272 162.727 144.629 161.363 146.303 161.363Z" fill="black"/>
<path d="M152.363 161.363C154.037 161.363 155.394 162.727 155.394 164.409C155.394 166.091 154.037 167.454 152.363 167.454C150.69 167.454 149.333 166.091 149.333 164.409C149.333 162.727 150.69 161.363 152.363 161.363Z" fill="black"/>
<path d="M158.424 161.363C160.098 161.363 161.454 162.727 161.454 164.409C161.454 166.091 160.098 167.454 158.424 167.454C156.75 167.454 155.394 166.091 155.394 164.409C155.394 162.727 156.75 161.363 158.424 161.363Z" fill="black"/>
<path d="M164.484 161.363C166.158 161.363 167.515 162.727 167.515 164.409C167.515 166.091 166.158 167.454 164.484 167.454C162.811 167.454 161.454 166.091 161.454 164.409C161.454 162.727 162.811 161.363 164.484 161.363Z" fill="black"/>
<path d="M170.546 161.363C172.22 161.363 173.576 162.727 173.576 164.409C173.576 166.091 172.22 167.454 170.546 167.454C168.872 167.454 167.516 166.091 167.516 164.409C167.516 162.727 168.872 161.363 170.546 161.363Z" fill="black"/>
<path d="M182.667 161.363C184.341 161.363 185.697 162.727 185.697 164.409C185.697 166.091 184.341 167.454 182.667 167.454C180.993 167.454 179.637 166.091 179.637 164.409C179.637 162.727 180.993 161.363 182.667 161.363Z" fill="black"/>
<path d="M188.728 161.363C190.401 161.363 191.758 162.727 191.758 164.409C191.758 166.091 190.401 167.454 188.728 167.454C187.054 167.454 185.697 166.091 185.697 164.409C185.697 162.727 187.054 161.363 188.728 161.363Z" fill="black"/>
<path d="M91.7578 167.454C93.4315 167.454 94.7881 168.818 94.7881 170.5C94.7881 172.182 93.4315 173.545 91.7578 173.545C90.0843 173.545 88.7275 172.182 88.7275 170.5C88.7275 168.818 90.0843 167.454 91.7578 167.454Z" fill="black"/>
<path d="M116 167.454C117.674 167.454 119.03 168.818 119.03 170.5C119.03 172.182 117.674 173.545 116 173.545C114.326 173.545 112.97 172.182 112.97 170.5C112.97 168.818 114.326 167.454 116 167.454Z" fill="black"/>
<path d="M128.121 167.454C129.795 167.454 131.151 168.818 131.151 170.5C131.151 172.182 129.795 173.545 128.121 173.545C126.448 173.545 125.091 172.182 125.091 170.5C125.091 168.818 126.448 167.454 128.121 167.454Z" fill="black"/>
<path d="M140.242 167.454C141.916 167.454 143.273 168.818 143.273 170.5C143.273 172.182 141.916 173.545 140.242 173.545C138.569 173.545 137.212 172.182 137.212 170.5C137.212 168.818 138.569 167.454 140.242 167.454Z" fill="black"/>
<path d="M146.303 167.454C147.976 167.454 149.333 168.818 149.333 170.5C149.333 172.182 147.976 173.545 146.303 173.545C144.629 173.545 143.272 172.182 143.272 170.5C143.272 168.818 144.629 167.454 146.303 167.454Z" fill="black"/>
<path d="M164.484 167.454C166.158 167.454 167.515 168.818 167.515 170.5C167.515 172.182 166.158 173.545 164.484 173.545C162.811 173.545 161.454 172.182 161.454 170.5C161.454 168.818 162.811 167.454 164.484 167.454Z" fill="black"/>
<path d="M170.546 167.454C172.22 167.454 173.576 168.818 173.576 170.5C173.576 172.182 172.22 173.545 170.546 173.545C168.872 173.545 167.516 172.182 167.516 170.5C167.516 168.818 168.872 167.454 170.546 167.454Z" fill="black"/>
<path d="M176.606 167.454C178.28 167.454 179.637 168.818 179.637 170.5C179.637 172.182 178.28 173.545 176.606 173.545C174.933 173.545 173.576 172.182 173.576 170.5C173.576 168.818 174.933 167.454 176.606 167.454Z" fill="black"/>
<path d="M67.5147 173.545C69.1883 173.545 70.545 174.908 70.545 176.59C70.545 178.272 69.1883 179.636 67.5147 179.636C65.8411 179.636 64.4844 178.272 64.4844 176.59C64.4844 174.908 65.8411 173.545 67.5147 173.545Z" fill="black"/>
<path d="M85.6973 173.545C87.371 173.545 88.7276 174.908 88.7276 176.59C88.7276 178.272 87.371 179.636 85.6973 179.636C84.0237 179.636 82.667 178.272 82.667 176.59C82.667 174.908 84.0237 173.545 85.6973 173.545Z" fill="black"/>
<path d="M91.7578 173.545C93.4315 173.545 94.7881 174.908 94.7881 176.59C94.7881 178.272 93.4315 179.636 91.7578 179.636C90.0843 179.636 88.7275 178.272 88.7275 176.59C88.7275 174.908 90.0843 173.545 91.7578 173.545Z" fill="black"/>
<path d="M103.879 173.545C105.553 173.545 106.909 174.908 106.909 176.59C106.909 178.272 105.553 179.636 103.879 179.636C102.205 179.636 100.849 178.272 100.849 176.59C100.849 174.908 102.205 173.545 103.879 173.545Z" fill="black"/>
<path d="M122.061 173.545C123.734 173.545 125.091 174.908 125.091 176.59C125.091 178.272 123.734 179.636 122.061 179.636C120.387 179.636 119.03 178.272 119.03 176.59C119.03 174.908 120.387 173.545 122.061 173.545Z" fill="black"/>
<path d="M134.182 173.545C135.855 173.545 137.212 174.908 137.212 176.59C137.212 178.272 135.855 179.636 134.182 179.636C132.508 179.636 131.151 178.272 131.151 176.59C131.151 174.908 132.508 173.545 134.182 173.545Z" fill="black"/>
<path d="M158.424 173.545C160.098 173.545 161.454 174.908 161.454 176.59C161.454 178.272 160.098 179.636 158.424 179.636C156.75 179.636 155.394 178.272 155.394 176.59C155.394 174.908 156.75 173.545 158.424 173.545Z" fill="black"/>
<path d="M164.484 173.545C166.158 173.545 167.515 174.908 167.515 176.59C167.515 178.272 166.158 179.636 164.484 179.636C162.811 179.636 161.454 178.272 161.454 176.59C161.454 174.908 162.811 173.545 164.484 173.545Z" fill="black"/>
<path d="M176.606 173.545C178.28 173.545 179.637 174.908 179.637 176.59C179.637 178.272 178.28 179.636 176.606 179.636C174.933 179.636 173.576 178.272 173.576 176.59C173.576 174.908 174.933 173.545 176.606 173.545Z" fill="black"/>
<path d="M188.728 173.545C190.401 173.545 191.758 174.908 191.758 176.59C191.758 178.272 190.401 179.636 188.728 179.636C187.054 179.636 185.697 178.272 185.697 176.59C185.697 174.908 187.054 173.545 188.728 173.545Z" fill="black"/>
<path d="M79.6367 179.636C81.3104 179.636 82.6671 180.999 82.6671 182.681C82.6671 184.363 81.3104 185.727 79.6367 185.727C77.9632 185.727 76.6064 184.363 76.6064 182.681C76.6064 180.999 77.9632 179.636 79.6367 179.636Z" fill="black"/>
<path d="M85.6973 179.636C87.371 179.636 88.7276 180.999 88.7276 182.681C88.7276 184.363 87.371 185.727 85.6973 185.727C84.0237 185.727 82.667 184.363 82.667 182.681C82.667 180.999 84.0237 179.636 85.6973 179.636Z" fill="black"/>
<path d="M103.879 179.636C105.553 179.636 106.909 180.999 106.909 182.681C106.909 184.363 105.553 185.727 103.879 185.727C102.205 185.727 100.849 184.363 100.849 182.681C100.849 180.999 102.205 179.636 103.879 179.636Z" fill="black"/>
<path d="M116 179.636C117.674 179.636 119.03 180.999 119.03 182.681C119.03 184.363 117.674 185.727 116 185.727C114.326 185.727 112.97 184.363 112.97 182.681C112.97 180.999 114.326 179.636 116 179.636Z" fill="black"/>
<path d="M134.182 179.636C135.855 179.636 137.212 180.999 137.212 182.681C137.212 184.363 135.855 185.727 134.182 185.727C132.508 185.727 131.151 184.363 131.151 182.681C131.151 180.999 132.508 179.636 134.182 179.636Z" fill="black"/>
<path d="M146.303 179.636C147.976 179.636 149.333 180.999 149.333 182.681C149.333 184.363 147.976 185.727 146.303 185.727C144.629 185.727 143.272 184.363 143.272 182.681C143.272 180.999 144.629 179.636 146.303 179.636Z" fill="black"/>
<path d="M152.363 179.636C154.037 179.636 155.394 180.999 155.394 182.681C155.394 184.363 154.037 185.727 152.363 185.727C150.69 185.727 149.333 184.363 149.333 182.681C149.333 180.999 150.69 179.636 152.363 179.636Z" fill="black"/>
<path d="M158.424 179.636C160.098 179.636 161.454 180.999 161.454 182.681C161.454 184.363 160.098 185.727 158.424 185.727C156.75 185.727 155.394 184.363 155.394 182.681C155.394 180.999 156.75 179.636 158.424 179.636Z" fill="black"/>
<path d="M182.667 179.636C184.341 179.636 185.697 180.999 185.697 182.681C185.697 184.363 184.341 185.727 182.667 185.727C180.993 185.727 179.637 184.363 179.637 182.681C179.637 180.999 180.993 179.636 182.667 179.636Z" fill="black"/>
<path d="M85.6973 185.728C87.371 185.728 88.7276 187.091 88.7276 188.773C88.7276 190.455 87.371 191.818 85.6973 191.818C84.0237 191.818 82.667 190.455 82.667 188.773C82.667 187.091 84.0237 185.728 85.6973 185.728Z" fill="black"/>
<path d="M91.7578 185.728C93.4315 185.728 94.7881 187.091 94.7881 188.773C94.7881 190.455 93.4315 191.818 91.7578 191.818C90.0843 191.818 88.7275 190.455 88.7275 188.773C88.7275 187.091 90.0843 185.728 91.7578 185.728Z" fill="black"/>
<path d="M97.8184 185.728C99.492 185.728 100.849 187.091 100.849 188.773C100.849 190.455 99.492 191.818 97.8184 191.818C96.1448 191.818 94.7881 190.455 94.7881 188.773C94.7881 187.091 96.1448 185.728 97.8184 185.728Z" fill="black"/>
<path d="M109.939 185.728C111.613 185.728 112.97 187.091 112.97 188.773C112.97 190.455 111.613 191.818 109.939 191.818C108.266 191.818 106.909 190.455 106.909 188.773C106.909 187.091 108.266 185.728 109.939 185.728Z" fill="black"/>
<path d="M116 185.728C117.674 185.728 119.03 187.091 119.03 188.773C119.03 190.455 117.674 191.818 116 191.818C114.326 191.818 112.97 190.455 112.97 188.773C112.97 187.091 114.326 185.728 116 185.728Z" fill="black"/>
<path d="M140.242 185.728C141.916 185.728 143.273 187.091 143.273 188.773C143.273 190.455 141.916 191.818 140.242 191.818C138.569 191.818 137.212 190.455 137.212 188.773C137.212 187.091 138.569 185.728 140.242 185.728Z" fill="black"/>
<path d="M146.303 185.728C147.976 185.728 149.333 187.091 149.333 188.773C149.333 190.455 147.976 191.818 146.303 191.818C144.629 191.818 143.272 190.455 143.272 188.773C143.272 187.091 144.629 185.728 146.303 185.728Z" fill="black"/>
<path d="M152.363 185.728C154.037 185.728 155.394 187.091 155.394 188.773C155.394 190.455 154.037 191.818 152.363 191.818C150.69 191.818 149.333 190.455 149.333 188.773C149.333 187.091 150.69 185.728 152.363 185.728Z" fill="black"/>
<path d="M164.484 185.728C166.158 185.728 167.515 187.091 167.515 188.773C167.515 190.455 166.158 191.818 164.484 191.818C162.811 191.818 161.454 190.455 161.454 188.773C161.454 187.091 162.811 185.728 164.484 185.728Z" fill="black"/>
<path d="M182.667 185.728C184.341 185.728 185.697 187.091 185.697 188.773C185.697 190.455 184.341 191.818 182.667 191.818C180.993 191.818 179.637 190.455 179.637 188.773C179.637 187.091 180.993 185.728 182.667 185.728Z" fill="black"/>
<path d="M188.728 185.728C190.401 185.728 191.758 187.091 191.758 188.773C191.758 190.455 190.401 191.818 188.728 191.818C187.054 191.818 185.697 190.455 185.697 188.773C185.697 187.091 187.054 185.728 188.728 185.728Z" fill="black"/>
<path d="M43.9402 15.1846H30.4841C23.9261 15.1846 18.3702 19.539 16.5939 25.4906C16.4102 26.1063 16.2668 26.739 16.1672 27.3858C16.0573 28.0996 16 28.8303 16 29.5743V43.4188C16 51.3573 22.4994 57.8128 30.4841 57.8128L37.2121 57.8141L43.9402 57.8124C51.9244 57.8124 58.4242 51.3568 58.4242 43.4184V29.5743C58.4242 21.6397 51.9249 15.1846 43.9402 15.1846ZM52.0606 43.4188C52.0606 47.8291 48.4181 51.4174 43.9385 51.4174L37.2121 51.4187L30.4858 51.417C26.0062 51.417 22.3636 47.8287 22.3636 43.4188V29.5743C22.3636 28.1968 22.7192 26.8998 23.3449 25.7665C23.9473 24.6763 24.7996 23.7387 25.8259 23.0288C27.1453 22.116 28.7519 21.58 30.4836 21.58H43.9402C48.4181 21.58 52.0606 25.1662 52.0606 29.5743V43.4188Z" fill="black"/>
<path d="M177.273 15.1846H163.817C157.259 15.1846 151.703 19.539 149.927 25.4906C149.743 26.1063 149.6 26.739 149.5 27.3858C149.39 28.0996 149.333 28.8303 149.333 29.5743V43.4188C149.333 51.3573 155.832 57.8128 163.817 57.8128L170.545 57.8141L177.273 57.8124C185.257 57.8124 191.757 51.3568 191.757 43.4184V29.5743C191.757 21.6397 185.258 15.1846 177.273 15.1846ZM185.394 43.4188C185.394 47.8291 181.751 51.4174 177.271 51.4174L170.545 51.4187L163.819 51.417C159.339 51.417 155.697 47.8287 155.697 43.4188V29.5743C155.697 28.1968 156.052 26.8998 156.678 25.7665C157.28 24.6763 158.133 23.7387 159.159 23.0288C160.478 22.116 162.085 21.58 163.817 21.58H177.273C181.751 21.58 185.394 25.1662 185.394 29.5743V43.4188Z" fill="black"/>
<path d="M43.9402 149.185H30.4841C23.9261 149.185 18.3702 153.539 16.5939 159.491C16.4102 160.106 16.2668 160.739 16.1672 161.386C16.0573 162.1 16 162.83 16 163.574V177.419C16 185.357 22.4994 191.813 30.4841 191.813L37.2121 191.814L43.9402 191.812C51.9244 191.812 58.4242 185.357 58.4242 177.418V163.574C58.4242 155.64 51.9249 149.185 43.9402 149.185ZM52.0606 177.419C52.0606 181.829 48.4181 185.417 43.9385 185.417L37.2121 185.419L30.4858 185.417C26.0062 185.417 22.3636 181.829 22.3636 177.419V163.574C22.3636 162.197 22.7192 160.9 23.3449 159.766C23.9473 158.676 24.7996 157.739 25.8259 157.029C27.1453 156.116 28.7519 155.58 30.4836 155.58H43.9402C48.4181 155.58 52.0606 159.166 52.0606 163.574V177.419Z" fill="black"/>
<path d="M33.0946 45.636C30.351 45.636 28.1191 43.4374 28.1191 40.7375V32.2593C28.1191 31.4158 28.3373 30.622 28.7193 29.9275C29.0882 29.2591 29.6104 28.6846 30.2393 28.2512C31.0471 27.6924 32.0319 27.3633 33.0919 27.3633H41.3331C44.0742 27.3633 46.3061 29.5593 46.3061 32.2591V40.7373C46.3061 43.4371 44.0744 45.6358 41.3331 45.6358H37.2126L33.0946 45.636Z" fill="black"/>
<path d="M166.428 45.636C163.684 45.636 161.452 43.4374 161.452 40.7375V32.2593C161.452 31.4158 161.67 30.622 162.052 29.9275C162.421 29.2591 162.943 28.6846 163.572 28.2512C164.38 27.6924 165.365 27.3633 166.425 27.3633H174.666C177.407 27.3633 179.639 29.5593 179.639 32.2591V40.7373C179.639 43.4371 177.407 45.6358 174.666 45.6358H170.546L166.428 45.636Z" fill="black"/>
<path d="M33.0946 179.636C30.351 179.636 28.1191 177.437 28.1191 174.737V166.259C28.1191 165.416 28.3373 164.622 28.7193 163.927C29.0882 163.259 29.6104 162.685 30.2393 162.251C31.0471 161.692 32.0319 161.363 33.0919 161.363H41.3331C44.0742 161.363 46.3061 163.559 46.3061 166.259V174.737C46.3061 177.437 44.0744 179.636 41.3331 179.636H37.2126L33.0946 179.636Z" fill="black"/>
<g clip-path="url(#clip1_1664_3773)">
<mask id="mask0_1664_3773" style="mask-type:luminance" maskUnits="userSpaceOnUse" x="80" y="80" width="46" height="47">
<path d="M80.1865 80.8438H125.901V126.558H80.1865V80.8438Z" fill="white"/>
</mask>
<g mask="url(#mask0_1664_3773)">
<path d="M115.833 80.8438H90.2552C87.5848 80.8438 85.0238 81.9046 83.1356 83.7928C81.2473 85.681 80.1865 88.242 80.1865 90.9124V116.49C80.1865 117.812 80.447 119.121 80.953 120.343C81.459 121.564 82.2006 122.674 83.1356 123.609C85.0238 125.498 87.5848 126.558 90.2552 126.558H115.833C117.155 126.558 118.464 126.298 119.686 125.792C120.907 125.286 122.017 124.544 122.952 123.609C123.887 122.674 124.629 121.564 125.135 120.343C125.641 119.121 125.901 117.812 125.901 116.49V90.9124C125.901 88.242 124.84 85.681 122.952 83.7928C121.064 81.9046 118.503 80.8438 115.833 80.8438Z" fill="#C0FF00"/>
<path d="M115.029 93.0659C114.785 92.5876 114.468 92.1498 114.09 91.7676C113.609 91.2791 113.036 90.8911 112.404 90.6262C111.772 90.3614 111.094 90.225 110.409 90.225C109.724 90.225 109.045 90.3614 108.413 90.6262C107.781 90.8911 107.208 91.2791 106.728 91.7676L103.044 95.5014V92.4088C103.044 89.4922 100.713 87.1299 97.8362 87.1299C94.9584 87.1299 92.627 89.4922 92.627 92.4088V96.978C92.6245 98.3741 93.1727 99.7149 94.1527 100.709C94.8384 101.404 95.6658 101.864 96.5413 102.089L91.9972 106.695C91.0294 107.676 90.4828 108.996 90.4738 110.375L90.4727 110.427V114.996C90.4699 116.392 91.0177 117.733 91.9972 118.728C92.4774 119.218 93.0506 119.607 93.6831 119.872C94.3156 120.137 94.9948 120.274 95.6807 120.273C96.3662 120.273 97.0449 120.137 97.677 119.871C98.3091 119.606 98.8819 119.217 99.3619 118.728L109.481 108.469L113.801 104.092L114.091 103.799C115.071 102.805 115.619 101.464 115.616 100.068V95.4991C115.616 94.6614 115.421 93.8259 115.029 93.0648V93.0659ZM94.7127 92.4088C94.7127 90.6625 96.1139 89.2419 97.8373 89.2419C99.5607 89.2419 100.962 90.6625 100.962 92.4076C100.962 94.1551 99.5607 95.5757 97.8373 95.5757C96.1139 95.5757 94.7127 94.1551 94.7127 92.4088ZM113.225 96.8694C113.073 97.194 112.868 97.4865 112.617 97.7414L97.8899 112.668C97.6012 112.961 97.2571 113.194 96.8777 113.353C96.4982 113.513 96.091 113.595 95.6796 113.595C95.2682 113.596 94.8608 113.515 94.4814 113.356C94.102 113.197 93.7583 112.963 93.4704 112.67C93.2208 112.419 93.0159 112.127 92.8647 111.807C92.6711 111.399 92.5656 110.955 92.555 110.504V110.393C92.5618 109.563 92.8864 108.779 93.4693 108.188L108.199 93.2625C108.598 92.8541 109.103 92.5647 109.657 92.4266C110.212 92.2886 110.794 92.3073 111.338 92.4808C111.826 92.6362 112.255 92.8979 112.615 93.2636C113.073 93.7307 113.377 94.327 113.485 94.9721C113.594 95.6173 113.502 96.2803 113.223 96.8717L113.226 96.8694H113.225Z" fill="black"/>
</g>
</g>
</g>
<path d="M24 1H183C195.703 1 206 11.2975 206 24V183C206 195.703 195.703 206 183 206H24C11.2975 206 1 195.703 1 183V24C1 11.2975 11.2975 1 24 1Z" stroke="#EBEBEB" stroke-width="2"/>
<defs>
<clipPath id="clip0_1664_3773">
<path d="M0 24C0 10.7452 10.7452 0 24 0H183C196.255 0 207 10.7452 207 24V183C207 196.255 196.255 207 183 207H24C10.7452 207 0 196.255 0 183V24Z" fill="white"/>
</clipPath>
<clipPath id="clip1_1664_3773">
<rect width="46.8575" height="45.7146" fill="white" transform="translate(79.6953 80.8438)"/>
</clipPath>
</defs>
</svg>
